<?xml version="1.0" ?><!DOCTYPE svg  PUBLIC '-//W3C//DTD SVG 1.1//EN'  'http://www.w3.org/Graphics/SVG/1.1/DTD/svg11.dtd'><svg enable-background="new 0 0 48 48" id="Layer_1" version="1.1" viewBox="0 0 48 48" xml:space="preserve" xmlns="http://www.w3.org/2000/svg" xmlns:xlink="http://www.w3.org/1999/xlink"><g><path d="   M29.2,7.8h7.1c1.1,0,2.1,0.4,2.8,1.2l4.3,4.3c0.8,0.8,1.2,1.8,1.2,2.8v23.6c0,1.1-0.9,2-2,2H21.1c-1.1,0-2-0.9-2-2V24.4" fill="none" stroke="#000000" stroke-linecap="round" stroke-linejoin="round" stroke-miterlimit="10" stroke-width="1.5"/><line fill="none" stroke="#000000" stroke-linecap="round" stroke-linejoin="round" stroke-miterlimit="10" stroke-width="1.5" x1="14.7" x2="14.7" y1="25.1" y2="27.6"/><path d="   M14.7,35.6v8.5c0,1.1,0.9,2,2,2h21.5c1.1,0,2-0.9,2-2v-2.4" fill="none" stroke="#000000" stroke-linecap="round" stroke-linejoin="round" stroke-miterlimit="10" stroke-width="1.5"/><line fill="none" stroke="#000000" stroke-linecap="round" stroke-linejoin="round" stroke-miterlimit="10" stroke-width="1.5" x1="14.7" x2="14.7" y1="30.7" y2="32.5"/><path d="   M37.1,11.7v1.7c0,1.1,0.9,2,2,2h1.7" fill="none" stroke="#000000" stroke-linecap="round" stroke-linejoin="round" stroke-miterlimit="10" stroke-width="1.5"/><g><path d="    M31.2,28.7c2.8,0,5.7,0,8.5,0" fill="none" stroke="#000000" stroke-linecap="round" stroke-linejoin="round" stroke-miterlimit="10" stroke-width="1.5"/><path d="    M24,28.7c1.2,0,2.4,0,3.6,0" fill="none" stroke="#000000" stroke-linecap="round" stroke-linejoin="round" stroke-miterlimit="10" stroke-width="1.5"/><path d="    M36.4,32.6c1.1,0,2.2,0,3.3,0" fill="none" stroke="#000000" stroke-linecap="round" stroke-linejoin="round" stroke-miterlimit="10" stroke-width="1.5"/><path d="    M24,32.6c2.8,0,5.7,0,8.5,0" fill="none" stroke="#000000" stroke-linecap="round" stroke-linejoin="round" stroke-miterlimit="10" stroke-width="1.5"/><path d="    M32.9,36.5c2.3,0,4.5,0,6.8,0" fill="none" stroke="#000000" stroke-linecap="round" stroke-linejoin="round" stroke-miterlimit="10" stroke-width="1.5"/><path d="    M24,36.5c1.7,0,3.4,0,5.1,0" fill="none" stroke="#000000" stroke-linecap="round" stroke-linejoin="round" stroke-miterlimit="10" stroke-width="1.5"/></g><g><path d="    M36.4,21.1c1.1,0,2.2,0,3.3,0" fill="none" stroke="#000000" stroke-linecap="round" stroke-linejoin="round" stroke-miterlimit="10" stroke-width="1.5"/><path d="    M30.1,21.1c2.8,0-0.4,0,2.5,0" fill="none" stroke="#000000" stroke-linecap="round" stroke-linejoin="round" stroke-miterlimit="10" stroke-width="1.5"/><path d="    M32.9,25c2.3,0,4.5,0,6.8,0" fill="none" stroke="#000000" stroke-linecap="round" stroke-linejoin="round" stroke-miterlimit="10" stroke-width="1.5"/><path d="    M24,25c1.7,0,3.4,0,5.1,0" fill="none" stroke="#000000" stroke-linecap="round" stroke-linejoin="round" stroke-miterlimit="10" stroke-width="1.5"/></g><path d="   M25.7,20.8l-5.2-1.1c-1.7,0.9-3.7,1.4-5.8,1.4c-6.3,0-11.4-4.3-11.4-9.6s5.1-9.6,11.4-9.6S26,6.2,26,11.5c0,1.6-0.4,3.1-1.2,4.4   L25.7,20.8z" fill="none" stroke="#000000" stroke-linecap="round" stroke-linejoin="round" stroke-miterlimit="10" stroke-width="1.5"/><g><path d="    M11.5,9.4c0-2,1.9-3.6,3.9-3.1c1.2,0.3,2.1,1.2,2.4,2.4c0.4,1.6-0.4,3-1.7,3.6c-0.8,0.4-1.4,1.2-1.4,2.2" fill="none" stroke="#000000" stroke-linecap="round" stroke-linejoin="round" stroke-miterlimit="10" stroke-width="1.5"/><g><line fill="none" stroke="#000000" stroke-linecap="round" stroke-linejoin="round" stroke-miterlimit="10" stroke-width="1.5" x1="14.7" x2="14.7" y1="16.5" y2="16.8"/></g></g></g></svg>