<?xml version="1.0" ?><svg style="enable-background:new 0 0 48 48;" version="1.1" viewBox="0 0 48 48" xml:space="preserve" xmlns="http://www.w3.org/2000/svg" xmlns:xlink="http://www.w3.org/1999/xlink"><style type="text/css">.st0{fill:none;stroke:#505050;stroke-width:2;stroke-linejoin:round;stroke-miterlimit:10;}.st1{fill:none;stroke:#505050;stroke-width:2;stroke-miterlimit:10;}.st2{fill:none;stroke:#505050;stroke-width:2;stroke-linecap:round;stroke-miterlimit:10;}.st3{fill:none;stroke:#505050;stroke-width:2;stroke-linecap:round;stroke-linejoin:round;stroke-miterlimit:10;}</style><g id="_x34_8x48"/><g id="icons"><g><path class="st1" d="M1,15v24c0-2.8,2.2-5,5-5V10C3.2,10,1,12.2,1,15z"/><line class="st1" x1="6" x2="19" y1="17" y2="17"/><path class="st1" d="M43,22v22H6c-2.8,0-5-2.2-5-5"/><path class="st1" d="M17.1,32.1c-1.8-4,1.9-10,4.5-13.3l1.5,1.5c0,0,1.2-3.2,2.2-4.4c1.9-2.4,3.1-3.3,4.5-4.3    c2.9-2.2,7.2-4.7,10.9-5.7c4.4-1.2,10.5,0.4,1,12.8c-2.4,3.1-5.6,6.7-7.5,7.5c-1.3,0.6-4.4,0.7-4.4,0.7l2.2,1.5    C32,28.3,23.8,35.5,17.1,32.1z"/><path class="st1" d="M40.8,11.4c-10.2,8-21.9,18.4-27.2,24.3"/></g></g></svg>