<svg xmlns="http://www.w3.org/2000/svg" id="image">
    <path fill="currentColor" stroke="currentColor" stroke-width="1"
          d="M 558.00,479.00
           C 553.88,474.91 552.44,471.85 552.09,466.00
             551.42,454.47 557.58,451.83 561.68,444.00
             567.45,432.98 567.63,426.44 569.65,422.00
             571.30,418.38 574.07,416.18 576.37,413.00
             581.12,406.43 583.92,399.67 591.00,394.85
             591.00,394.85 607.72,385.36 607.72,385.36
             607.72,385.36 618.00,375.09 618.00,375.09
             618.00,375.09 638.56,357.12 638.56,357.12
             638.56,357.12 648.43,347.28 648.43,347.28
             648.43,347.28 654.91,341.82 654.91,341.82
             658.31,338.59 659.76,335.64 664.00,333.07
             666.38,331.63 676.57,326.45 679.00,325.85
             679.00,325.85 696.00,323.05 696.00,323.05
             696.00,323.05 707.00,318.13 707.00,318.13
             712.57,315.98 725.07,313.13 731.00,314.34
             737.47,315.66 738.76,320.58 743.17,323.05
             746.31,324.82 754.34,325.41 761.00,329.03
             761.00,329.03 783.00,345.04 783.00,345.04
             783.00,345.04 793.00,349.82 793.00,349.82
             802.55,355.51 815.28,365.31 820.79,375.00
             826.17,384.44 824.52,396.74 823.28,407.00
             823.28,407.00 822.48,416.72 822.48,416.72
             822.03,418.03 817.51,424.86 815.80,430.00
             815.80,430.00 813.45,451.91 813.45,451.91
             812.25,456.16 806.99,462.88 805.05,467.01
             805.05,467.01 798.47,488.00 798.47,488.00
             795.16,495.62 780.72,509.03 778.23,515.00
             776.43,519.30 777.01,528.09 777.00,533.00
             776.99,539.74 776.38,546.57 771.88,551.98
             768.15,556.41 762.40,559.20 760.00,551.98
             757.68,552.03 755.21,551.88 753.09,553.02
             749.70,554.85 740.55,567.34 738.13,571.09
             736.08,574.27 734.43,577.84 730.91,579.69
             728.49,580.96 725.66,580.96 723.00,581.00
             718.39,581.05 710.75,579.67 708.76,585.06
             706.47,591.21 714.36,594.56 717.43,601.00
             722.46,611.54 714.97,630.83 728.00,643.00
             722.55,652.14 725.55,649.43 726.78,657.00
             726.78,657.00 727.76,671.00 727.76,671.00
             728.84,675.65 732.18,678.94 733.54,685.00
             735.31,692.93 733.30,694.08 733.01,699.00
             733.01,699.00 733.83,710.00 733.83,710.00
             733.83,710.00 733.83,736.00 733.83,736.00
             733.19,738.51 730.97,743.65 729.78,746.00
             729.78,746.00 714.91,771.00 714.91,771.00
             705.31,785.19 698.03,791.30 698.00,810.00
             697.99,815.19 698.41,826.53 697.30,831.00
             694.96,840.39 689.29,849.06 689.05,859.00
             688.90,865.52 691.01,875.96 693.47,882.00
             693.47,882.00 698.37,892.00 698.37,892.00
             698.37,892.00 701.38,918.00 701.38,918.00
             702.40,922.25 704.92,924.53 706.72,929.00
             710.04,937.23 709.24,945.66 710.39,951.00
             710.39,951.00 717.46,972.00 717.46,972.00
             718.59,975.13 721.44,984.49 725.20,984.98
             727.64,985.29 730.24,982.49 731.52,980.70
             735.69,974.87 736.13,967.61 738.33,961.00
             742.52,948.43 746.97,945.08 754.51,934.83
             763.15,923.09 774.31,909.50 786.00,900.74
             786.00,900.74 799.99,890.70 799.99,890.70
             804.24,887.00 806.20,883.33 812.00,881.64
             812.00,881.64 859.00,876.83 859.00,876.83
             859.00,876.83 879.00,873.06 879.00,873.06
             879.00,873.06 894.00,868.13 894.00,868.13
             907.66,864.81 915.32,864.90 926.99,854.80
             928.98,853.07 933.81,848.56 934.17,845.92
             934.58,842.81 931.66,840.72 930.25,836.91
             930.25,836.91 926.83,825.00 926.83,825.00
             922.84,815.79 917.62,810.88 921.09,800.00
             928.18,777.77 953.69,760.61 970.91,746.12
             977.43,740.63 981.62,732.99 987.09,726.58
             995.24,717.02 995.46,719.23 1003.07,711.83
             1005.92,709.07 1009.99,704.02 1013.09,702.21
             1017.77,699.49 1033.45,696.07 1039.00,696.00
             1039.00,696.00 1055.00,696.00 1055.00,696.00
             1065.29,696.13 1067.79,700.11 1077.00,703.29
             1080.86,704.62 1083.06,704.52 1087.00,706.52
             1091.02,708.55 1107.45,722.53 1110.13,726.18
             1115.87,733.99 1116.79,740.43 1119.60,749.00
             1119.60,749.00 1123.07,758.00 1123.07,758.00
             1125.47,766.71 1127.17,782.80 1126.89,791.96
             1126.89,791.96 1126.89,802.00 1126.89,802.00
             1126.89,802.00 1124.04,828.00 1124.04,828.00
             1124.60,839.85 1132.42,842.09 1132.96,856.00
             1133.46,868.77 1130.01,883.08 1117.00,888.03
             1113.68,889.30 1111.62,890.00 1108.00,889.95
             1098.52,889.79 1092.22,884.47 1087.00,883.57
             1080.16,882.39 1070.63,889.62 1071.78,897.00
             1073.28,906.54 1088.81,914.15 1096.00,919.30
             1096.00,919.30 1123.00,942.07 1123.00,942.07
             1123.00,942.07 1132.00,947.59 1132.00,947.59
             1140.28,953.08 1154.31,963.26 1158.72,972.00
             1162.51,979.50 1162.66,984.35 1164.43,992.00
             1164.43,992.00 1169.81,1012.00 1169.81,1012.00
             1169.81,1012.00 1169.81,1031.04 1169.81,1031.04
             1169.81,1031.04 1166.01,1069.00 1166.01,1069.00
             1166.01,1069.00 1170.30,1108.00 1170.30,1108.00
             1170.30,1108.00 1172.83,1119.00 1172.83,1119.00
             1174.40,1129.92 1175.35,1145.82 1178.91,1155.99
             1181.24,1162.63 1192.66,1174.79 1193.25,1189.00
             1193.78,1201.71 1189.97,1211.32 1185.86,1223.00
             1184.74,1226.22 1184.32,1228.94 1182.65,1231.99
             1182.65,1231.99 1177.62,1239.17 1177.62,1239.17
             1175.34,1242.80 1168.76,1254.39 1168.00,1258.00
             1168.00,1258.00 1176.00,1260.25 1176.00,1260.25
             1176.00,1260.25 1186.00,1259.67 1186.00,1259.67
             1186.00,1259.67 1207.00,1265.49 1207.00,1265.49
             1207.00,1265.49 1227.00,1268.46 1227.00,1268.46
             1227.00,1268.46 1236.00,1270.72 1236.00,1270.72
             1236.00,1270.72 1253.00,1273.46 1253.00,1273.46
             1253.00,1273.46 1276.00,1278.00 1276.00,1278.00
             1276.00,1278.00 1274.00,1282.00 1274.00,1282.00
             1282.55,1283.39 1279.15,1287.39 1290.00,1288.00
             1289.14,1289.92 1287.80,1291.84 1288.13,1294.04
             1288.57,1296.89 1291.63,1299.28 1289.35,1302.81
             1285.56,1308.67 1278.09,1305.00 1278.57,1310.08
             1278.95,1314.19 1289.87,1320.94 1293.04,1325.21
             1297.16,1330.75 1300.07,1342.18 1298.61,1349.00
             1298.61,1349.00 1295.00,1359.00 1295.00,1359.00
             1295.00,1359.00 1287.00,1356.30 1287.00,1356.30
             1287.00,1356.30 1275.09,1353.74 1275.09,1353.74
             1270.94,1352.07 1268.68,1348.95 1264.00,1348.23
             1258.91,1347.43 1254.22,1349.22 1254.11,1355.00
             1253.94,1364.53 1262.22,1372.74 1265.18,1381.00
             1266.71,1385.25 1265.33,1388.98 1266.72,1393.00
             1268.34,1397.70 1272.97,1402.00 1274.37,1406.04
             1274.37,1406.04 1276.13,1414.00 1276.13,1414.00
             1276.13,1414.00 1278.64,1423.00 1278.64,1423.00
             1279.77,1428.22 1280.97,1445.34 1281.00,1451.00
             1281.04,1458.14 1283.56,1464.92 1284.79,1472.00
             1284.79,1472.00 1284.79,1487.00 1284.79,1487.00
             1284.79,1487.00 1287.72,1504.00 1287.72,1504.00
             1287.72,1504.00 1288.52,1514.00 1288.52,1514.00
             1288.52,1514.00 1288.52,1521.00 1288.52,1521.00
             1288.52,1521.00 1291.11,1532.00 1291.11,1532.00
             1291.11,1532.00 1296.49,1557.00 1296.49,1557.00
             1296.49,1557.00 1298.42,1573.00 1298.42,1573.00
             1298.42,1573.00 1304.84,1609.00 1304.84,1609.00
             1304.84,1609.00 1304.84,1645.00 1304.84,1645.00
             1304.84,1657.92 1299.38,1656.47 1290.00,1663.17
             1284.53,1667.07 1278.21,1672.83 1273.91,1678.00
             1265.78,1687.79 1269.86,1698.71 1270.21,1710.00
             1270.21,1710.00 1270.21,1731.04 1270.21,1731.04
             1269.58,1734.88 1266.99,1738.62 1265.01,1742.00
             1262.43,1746.39 1259.35,1751.99 1255.48,1755.38
             1250.22,1760.00 1237.42,1762.32 1230.58,1761.70
             1226.32,1761.32 1222.91,1758.58 1219.00,1757.07
             1215.15,1755.58 1206.08,1753.76 1202.04,1754.14
             1199.64,1754.37 1198.79,1755.04 1196.72,1755.58
             1193.28,1756.47 1193.11,1755.70 1190.00,1758.00
             1190.00,1758.00 1181.04,1757.00 1181.04,1757.00
             1181.74,1761.54 1181.06,1761.95 1181.04,1766.00
             1181.04,1766.00 1181.91,1777.00 1181.91,1777.00
             1181.91,1777.00 1180.05,1787.00 1180.05,1787.00
             1180.05,1787.00 1180.05,1801.00 1180.05,1801.00
             1180.05,1801.00 1180.05,1807.72 1180.05,1807.72
             1180.19,1810.11 1181.23,1811.85 1182.18,1814.01
             1188.60,1828.54 1188.85,1825.77 1197.63,1838.00
             1202.15,1844.30 1203.21,1848.69 1209.67,1854.33
             1216.31,1860.13 1217.15,1855.20 1227.92,1864.18
             1233.47,1868.81 1233.59,1871.17 1237.21,1874.41
             1243.81,1880.32 1248.66,1881.77 1253.58,1885.52
             1258.85,1889.54 1269.86,1899.30 1275.00,1901.87
             1285.35,1907.04 1289.35,1904.81 1299.00,1908.53
             1309.24,1912.49 1324.44,1930.76 1323.32,1941.99
             1322.77,1947.49 1320.24,1948.72 1316.00,1951.71
             1307.64,1957.60 1300.03,1957.98 1290.00,1958.08
             1290.00,1958.08 1276.00,1958.08 1276.00,1958.08
             1276.00,1958.08 1256.00,1960.45 1256.00,1960.45
             1256.00,1960.45 1248.00,1960.45 1248.00,1960.45
             1248.00,1960.45 1220.00,1961.00 1220.00,1961.00
             1215.07,1960.94 1206.30,1959.83 1202.04,1957.45
             1202.04,1957.45 1184.83,1945.17 1184.83,1945.17
             1184.83,1945.17 1167.00,1936.33 1167.00,1936.33
             1156.82,1931.94 1150.10,1930.91 1140.00,1924.26
             1130.26,1917.84 1109.66,1904.54 1098.00,1905.81
             1098.00,1905.81 1081.00,1911.78 1081.00,1911.78
             1081.00,1911.78 1065.00,1914.39 1065.00,1914.39
             1065.00,1914.39 1055.00,1918.75 1055.00,1918.75
             1050.01,1920.44 1041.60,1919.43 1041.02,1924.13
             1040.74,1926.41 1043.04,1929.15 1044.47,1930.72
             1047.97,1934.55 1054.66,1939.34 1057.12,1943.04
             1057.12,1943.04 1067.38,1965.00 1067.38,1965.00
             1067.38,1965.00 1069.21,1973.00 1069.21,1973.00
             1071.02,1979.25 1072.88,1981.11 1073.00,1988.00
             1073.00,1988.00 1073.00,1994.00 1073.00,1994.00
             1073.00,1994.00 1074.00,2008.00 1074.00,2008.00
             1074.06,2020.89 1073.45,2032.14 1062.86,2041.03
             1060.78,2042.78 1058.44,2045.01 1055.91,2045.97
             1053.07,2047.06 1049.04,2047.03 1046.00,2047.00
             1041.63,2046.95 1038.01,2046.19 1034.00,2044.38
             1025.16,2040.39 1018.92,2031.76 1012.57,2024.89
             1012.57,2024.89 1000.39,2012.09 1000.39,2012.09
             997.06,2008.47 991.98,2005.83 990.51,2000.99
             990.51,2000.99 989.59,1989.00 989.59,1989.00
             989.59,1989.00 986.69,1982.00 986.69,1982.00
             986.69,1982.00 985.32,1973.00 985.32,1973.00
             985.32,1973.00 981.61,1962.00 981.61,1962.00
             980.27,1956.79 981.79,1951.74 977.44,1947.31
             974.47,1944.29 968.25,1945.03 964.00,1944.42
             952.89,1942.83 942.40,1942.69 934.10,1933.96
             930.98,1930.67 917.93,1912.25 916.62,1908.00
             912.86,1895.84 915.92,1889.17 907.05,1877.09
             904.14,1873.13 895.49,1867.83 891.17,1864.81
             887.50,1862.23 879.36,1854.27 876.71,1850.71
             876.71,1850.71 867.69,1834.00 867.69,1834.00
             867.69,1834.00 854.26,1809.00 854.26,1809.00
             854.26,1809.00 850.46,1800.04 850.46,1800.04
             850.46,1800.04 837.87,1781.00 837.87,1781.00
             837.87,1781.00 826.68,1760.00 826.68,1760.00
             826.68,1760.00 804.58,1717.00 804.58,1717.00
             803.19,1713.87 795.56,1701.92 793.41,1699.28
             793.41,1699.28 784.63,1689.00 784.63,1689.00
             781.99,1685.09 780.88,1680.36 779.19,1676.00
             776.22,1668.34 771.64,1659.34 772.09,1651.00
             772.78,1638.42 771.76,1646.05 769.42,1637.91
             768.33,1634.11 769.13,1628.29 761.98,1623.74
             757.50,1620.88 754.23,1623.09 750.21,1620.27
             750.21,1620.27 745.63,1615.60 745.63,1615.60
             745.63,1615.60 732.83,1605.91 732.83,1605.91
             729.22,1603.80 725.01,1602.91 721.00,1601.88
             721.00,1601.88 711.28,1598.94 711.28,1598.94
             711.28,1598.94 694.00,1598.94 694.00,1598.94
             688.09,1598.93 676.29,1597.58 671.00,1595.20
             664.05,1592.07 659.15,1585.59 648.09,1584.31
             644.32,1583.88 643.33,1586.34 639.99,1587.37
             637.28,1587.90 635.33,1586.80 633.00,1587.37
             625.19,1590.06 619.42,1608.31 614.34,1611.61
             610.07,1614.37 609.22,1609.33 604.39,1612.99
             597.64,1618.11 586.71,1631.53 582.35,1639.04
             582.35,1639.04 574.57,1653.99 574.57,1653.99
             574.57,1653.99 562.32,1673.00 562.32,1673.00
             562.32,1673.00 558.70,1680.00 558.70,1680.00
             558.70,1680.00 538.71,1717.00 538.71,1717.00
             538.71,1717.00 535.05,1727.00 535.05,1727.00
             530.49,1737.48 519.42,1743.33 517.48,1755.00
             516.87,1758.38 516.79,1763.65 517.48,1767.00
             519.28,1775.15 531.45,1793.95 537.32,1800.15
             540.76,1803.78 542.45,1804.59 545.96,1807.51
             545.96,1807.51 551.28,1812.62 551.28,1812.62
             551.28,1812.62 561.90,1820.18 561.90,1820.18
             569.53,1827.56 567.68,1835.54 577.60,1845.71
             581.23,1849.44 596.84,1855.77 603.00,1859.14
             613.31,1864.79 624.78,1869.06 633.83,1876.75
             638.24,1880.50 642.41,1885.88 641.75,1892.00
             641.40,1895.29 639.59,1898.19 638.00,1901.00
             638.00,1901.00 625.00,1902.00 625.00,1902.00
             625.00,1902.00 606.00,1902.00 606.00,1902.00
             608.26,1909.69 616.76,1913.14 615.44,1924.00
             614.62,1930.84 609.13,1934.79 603.00,1936.78
             591.49,1940.53 580.88,1940.14 569.00,1940.00
             558.45,1939.87 556.94,1937.16 548.00,1934.87
             537.54,1932.20 522.64,1929.43 513.04,1924.79
             507.40,1922.07 500.21,1914.75 494.99,1910.92
             494.99,1910.92 480.04,1902.21 480.04,1902.21
             477.08,1900.01 466.71,1890.01 464.59,1886.99
             460.35,1880.93 458.04,1873.83 450.99,1870.62
             446.38,1868.51 438.88,1865.40 434.00,1864.47
             418.47,1861.49 406.13,1862.92 391.00,1855.83
             387.93,1854.39 384.73,1852.91 382.18,1850.62
             382.18,1850.62 362.58,1829.16 362.58,1829.16
             359.74,1826.77 354.33,1824.65 354.34,1820.90
             354.36,1817.59 359.96,1808.41 361.78,1805.00
             361.78,1805.00 380.59,1773.00 380.59,1773.00
             383.02,1769.54 392.04,1758.65 392.89,1756.00
             394.42,1751.29 390.53,1743.43 388.96,1739.00
             388.96,1739.00 386.08,1725.00 386.08,1725.00
             386.08,1725.00 377.68,1676.00 377.68,1676.00
             377.68,1676.00 375.43,1665.00 375.43,1665.00
             375.43,1665.00 372.28,1638.00 372.28,1638.00
             372.28,1638.00 370.00,1613.00 370.00,1613.00
             369.89,1610.37 370.07,1603.41 368.37,1601.60
             366.67,1599.80 360.52,1599.33 358.00,1599.05
             346.47,1597.75 347.55,1596.25 334.00,1596.00
             323.49,1595.80 325.10,1589.70 314.00,1586.76
             305.97,1584.63 301.82,1588.05 297.09,1585.13
             291.85,1581.90 289.65,1573.78 281.83,1569.88
             280.23,1569.08 262.02,1565.19 260.00,1565.17
             252.13,1565.09 249.29,1562.08 242.00,1559.50
             228.83,1554.85 232.92,1557.18 223.00,1554.65
             223.00,1554.65 211.00,1551.00 211.00,1551.00
             213.34,1538.55 218.98,1510.37 219.00,1499.00
             219.00,1499.00 220.24,1475.00 220.24,1475.00
             220.24,1475.00 220.24,1459.00 220.24,1459.00
             220.24,1459.00 219.17,1444.00 219.17,1444.00
             219.17,1444.00 224.63,1418.00 224.63,1418.00
             224.63,1418.00 227.30,1396.00 227.30,1396.00
             227.30,1396.00 230.92,1380.00 230.92,1380.00
             230.92,1380.00 230.92,1370.00 230.92,1370.00
             230.92,1370.00 234.46,1344.00 234.46,1344.00
             234.46,1344.00 238.55,1329.00 238.55,1329.00
             238.55,1329.00 241.28,1310.00 241.28,1310.00
             241.28,1310.00 243.56,1298.00 243.56,1298.00
             243.56,1298.00 248.86,1255.04 248.86,1255.04
             248.86,1255.04 250.19,1244.00 250.19,1244.00
             250.19,1244.00 252.55,1237.00 252.55,1237.00
             252.55,1237.00 259.04,1204.00 259.04,1204.00
             259.04,1204.00 259.04,1191.00 259.04,1191.00
             259.04,1191.00 260.00,1181.00 260.00,1181.00
             260.11,1171.01 262.18,1156.63 264.91,1147.00
             264.91,1147.00 268.71,1135.00 268.71,1135.00
             268.71,1135.00 271.38,1122.00 271.38,1122.00
             271.38,1122.00 281.42,1086.00 281.42,1086.00
             281.42,1086.00 284.57,1072.00 284.57,1072.00
             284.57,1072.00 291.09,1052.00 291.09,1052.00
             291.09,1052.00 298.77,1024.00 298.77,1024.00
             298.77,1024.00 301.37,1017.00 301.37,1017.00
             301.37,1017.00 304.37,1002.00 304.37,1002.00
             304.37,1002.00 321.48,964.00 321.48,964.00
             321.48,964.00 329.88,949.83 329.88,949.83
             329.88,949.83 342.31,921.00 342.31,921.00
             342.31,921.00 348.00,910.00 348.00,910.00
             336.95,907.01 321.61,887.78 312.83,879.17
             312.83,879.17 281.20,849.55 281.20,849.55
             276.60,844.25 275.08,840.21 271.43,835.00
             271.43,835.00 260.03,820.00 260.03,820.00
             256.03,813.34 254.49,806.92 251.51,800.00
             246.02,787.22 241.18,779.65 241.00,765.00
             240.81,748.64 240.14,752.98 245.17,738.00
             245.17,738.00 248.67,728.09 248.67,728.09
             248.67,728.09 252.19,722.83 252.19,722.83
             261.24,709.46 259.53,713.75 269.91,703.83
             269.91,703.83 291.71,679.68 291.71,679.68
             298.75,671.39 297.23,666.70 302.78,661.04
             302.78,661.04 313.01,652.63 313.01,652.63
             313.01,652.63 325.93,641.24 325.93,641.24
             325.93,641.24 338.83,631.50 338.83,631.50
             338.83,631.50 352.00,619.82 352.00,619.82
             359.18,614.19 362.94,613.99 370.74,605.72
             370.74,605.72 379.61,594.18 379.61,594.18
             384.51,588.91 389.73,585.10 393.95,578.91
             393.95,578.91 407.13,557.09 407.13,557.09
             422.11,541.26 445.76,530.05 467.00,526.09
             473.96,524.80 480.60,525.37 487.58,525.13
             487.58,525.13 497.00,524.00 497.00,524.00
             497.00,524.00 492.00,516.00 492.00,516.00
             498.43,509.56 498.81,511.86 505.91,508.49
             510.24,506.43 510.16,505.34 516.00,503.76
             516.00,503.76 528.00,501.05 528.00,501.05
             536.09,498.08 544.19,493.99 550.48,488.00
             550.48,488.00 558.00,479.00 558.00,479.00 Z
           M 727.00,318.00
           C 727.00,318.00 726.00,318.00 726.00,318.00
             726.00,318.00 727.00,319.00 727.00,319.00
             727.00,319.00 727.00,318.00 727.00,318.00 Z
           M 794.00,407.00
           C 795.80,407.67 802.21,410.78 803.57,410.29
             805.70,409.51 804.87,406.59 804.51,405.00
             803.47,400.40 801.85,396.63 798.38,393.30
             794.90,389.95 788.95,389.27 786.37,386.51
             782.49,382.34 789.38,380.84 788.26,377.27
             787.70,375.50 783.15,373.61 784.00,380.00
             784.00,380.00 771.00,388.00 771.00,388.00
             771.77,397.43 776.53,394.69 782.83,398.09
             787.90,400.83 787.43,401.74 795.00,405.00
             795.00,405.00 794.00,407.00 794.00,407.00 Z
           M 783.00,422.00
           C 783.00,422.00 774.00,418.57 774.00,418.57
             774.00,418.57 752.00,422.00 752.00,422.00
             753.76,428.49 760.22,435.85 767.00,437.67
             767.00,437.67 773.00,437.67 773.00,437.67
             777.54,438.54 782.09,440.66 784.54,433.98
             785.97,430.10 783.88,425.87 783.00,422.00 Z
           M 700.00,422.00
           C 696.74,424.45 692.35,427.46 690.53,431.16
             690.53,431.16 688.53,435.58 688.53,435.58
             687.37,437.47 686.02,438.77 685.16,441.01
             683.52,445.34 686.29,450.22 690.09,450.39
             690.09,450.39 698.00,448.00 698.00,448.00
             698.98,441.86 700.82,442.88 701.79,437.99
             703.24,430.70 701.19,428.58 700.00,422.00 Z
           M 639.00,551.00
           C 639.00,554.69 638.71,561.73 639.63,565.00
             641.35,571.04 649.82,582.49 653.70,588.00
             657.69,593.66 659.29,601.79 664.26,597.27
             668.71,593.22 664.22,586.80 662.34,582.42
             662.34,582.42 655.40,568.00 655.40,568.00
             651.38,559.50 650.60,552.33 639.00,551.00 Z
           M 620.00,582.00
           C 620.00,582.00 610.00,588.00 610.00,588.00
             610.86,593.26 611.64,592.19 614.17,596.17
             616.84,600.38 617.47,607.55 628.00,604.00
             628.00,604.00 625.00,596.00 625.00,596.00
             634.43,592.69 622.96,585.34 620.00,582.00 Z
           M 664.00,602.00
           C 664.67,604.55 664.81,605.33 666.38,607.56
             666.38,607.56 669.68,611.39 669.68,611.39
             679.75,620.13 683.14,596.30 671.17,598.34
             671.17,598.34 664.00,602.00 664.00,602.00 Z
           M 617.28,607.74
           C 614.16,610.45 617.21,612.36 618.74,612.09
             620.47,611.78 622.01,607.98 617.28,607.74 Z
           M 350.00,624.00
           C 350.00,624.00 349.00,624.00 349.00,624.00
             349.00,624.00 350.00,625.00 350.00,625.00
             350.00,625.00 350.00,624.00 350.00,624.00 Z
           M 680.00,654.00
           C 673.55,657.12 666.04,666.31 678.00,668.00
             678.41,662.21 679.40,661.38 683.00,657.00
             683.00,657.00 680.00,654.00 680.00,654.00 Z
           M 668.00,723.00
           C 666.17,721.91 663.57,720.03 661.30,720.73
             659.27,721.36 658.53,724.19 658.02,726.00
             656.32,732.06 656.80,737.43 664.00,738.00
             663.69,727.90 664.17,731.73 668.00,723.00 Z
           M 1070.00,727.00
           C 1068.83,720.35 1063.58,721.27 1065.00,728.00
             1056.50,728.99 1055.94,734.37 1059.43,737.02
             1059.43,737.02 1073.00,741.64 1073.00,741.64
             1073.00,741.64 1091.98,751.30 1091.98,751.30
             1094.52,751.87 1096.99,750.99 1095.83,747.94
             1094.84,745.32 1090.18,741.32 1088.00,739.42
             1081.87,734.10 1078.21,728.57 1070.00,727.00 Z
           M 403.00,743.00
           C 394.32,744.86 396.24,746.28 390.00,750.28
             385.72,753.02 378.84,753.45 375.60,757.48
             373.46,760.15 374.03,764.71 374.00,768.00
             373.95,772.31 373.12,778.94 374.73,782.91
             376.01,786.06 378.54,787.09 381.53,794.00
             385.14,802.33 381.79,807.36 392.00,814.00
             397.38,803.42 393.51,801.90 395.16,796.00
             396.44,791.42 400.16,789.14 402.32,778.01
             402.32,778.01 403.00,743.00 403.00,743.00 Z
           M 1057.26,745.74
           C 1053.68,748.62 1056.83,750.87 1058.74,750.26
             1060.58,749.66 1061.91,745.97 1057.26,745.74 Z
           M 538.00,755.00
           C 538.00,755.00 525.02,760.62 525.02,760.62
             524.26,761.57 524.15,762.86 524.06,764.02
             523.48,770.99 526.35,773.25 532.00,776.68
             539.57,781.27 540.39,780.30 547.00,782.98
             547.00,782.98 555.00,787.02 555.00,787.02
             555.00,787.02 564.00,789.54 564.00,789.54
             564.00,789.54 575.00,794.00 575.00,794.00
             575.00,794.00 578.00,785.06 578.00,785.06
             576.05,785.21 573.93,785.59 572.00,785.06
             562.98,782.86 554.61,770.51 548.02,764.37
             543.04,759.73 541.47,763.34 538.00,755.00 Z
           M 1067.00,767.00
           C 1064.94,767.02 1061.24,766.84 1059.58,768.17
             1056.77,770.43 1059.09,777.28 1062.22,778.30
             1067.63,780.06 1075.84,771.58 1080.26,769.26
             1082.19,768.24 1087.33,767.56 1086.26,764.26
             1085.42,761.71 1081.94,762.52 1080.00,762.72
             1074.88,763.25 1068.93,761.53 1067.00,767.00 Z
           M 1103.00,771.16
           C 1101.85,771.04 1100.25,770.99 1099.15,771.16
             1093.18,773.09 1099.15,779.91 1102.14,774.15
             1102.14,774.15 1103.00,771.16 1103.00,771.16 Z
           M 1094.00,778.00
           C 1088.12,778.95 1086.76,781.34 1082.43,785.08
             1080.87,786.43 1076.52,790.19 1074.83,790.85
             1072.29,791.86 1069.46,790.67 1068.07,792.61
             1066.58,794.67 1067.36,801.53 1078.00,801.96
             1085.04,802.25 1087.02,801.68 1091.19,796.02
             1096.08,789.39 1095.41,785.89 1094.00,778.00 Z
           M 523.00,785.00
           C 515.22,785.27 512.98,781.96 510.53,783.88
             508.71,785.46 509.95,789.93 510.53,792.00
             512.80,802.32 518.51,806.69 525.87,813.70
             529.74,817.38 534.27,821.78 539.00,824.28
             546.35,828.16 546.41,825.12 559.91,834.76
             565.80,838.96 567.76,843.06 570.37,845.37
             570.37,845.37 575.83,848.92 575.83,848.92
             585.37,855.30 588.42,858.36 600.00,862.45
             609.43,865.79 616.28,866.00 626.00,865.54
             626.00,865.54 631.91,865.54 631.91,865.54
             634.94,864.85 636.04,862.75 640.01,861.79
             640.01,861.79 645.00,861.04 645.00,861.04
             648.91,859.99 657.00,855.93 658.36,851.83
             659.68,847.88 655.43,843.33 652.87,842.73
             649.80,842.01 648.74,845.00 644.96,844.82
             640.68,844.60 639.53,841.94 630.28,842.14
             619.29,842.38 614.92,837.75 608.00,835.79
             603.06,834.38 598.98,835.47 595.00,834.66
             590.33,833.70 587.35,829.95 583.09,828.05
             575.53,824.67 574.80,827.05 570.28,824.36
             561.34,819.03 559.27,814.98 552.71,808.17
             552.71,808.17 541.12,796.91 541.12,796.91
             541.12,796.91 532.58,789.99 532.58,789.99
             527.88,787.49 527.34,791.48 523.00,785.00 Z
           M 1053.00,797.00
           C 1057.53,793.93 1054.77,791.19 1051.96,791.66
             1050.69,791.87 1049.34,792.68 1048.43,793.57
             1042.74,799.13 1050.26,805.70 1053.11,806.29
             1056.92,807.09 1056.67,803.38 1055.50,801.00
             1055.50,801.00 1053.00,797.00 1053.00,797.00 Z
           M 1112.97,791.91
           C 1112.68,792.10 1112.01,791.93 1111.08,793.24
             1110.64,793.86 1107.14,805.88 1112.97,804.26
             1116.49,803.25 1119.00,793.29 1112.97,791.91 Z
           M 1068.00,837.00
           C 1071.66,843.30 1079.12,843.96 1079.26,838.98
             1079.33,836.36 1076.77,834.66 1075.29,832.84
             1072.45,829.32 1071.37,823.41 1065.14,825.91
             1061.06,827.55 1058.32,837.17 1068.00,837.00 Z
           M 982.30,834.91
           C 978.52,837.50 981.67,840.92 983.41,844.00
             987.14,850.60 986.88,852.90 994.04,857.24
             995.48,858.36 1004.11,862.19 1002.55,857.24
             1002.02,855.29 999.36,853.35 998.00,852.20
             994.85,849.54 993.56,848.60 991.35,845.00
             988.81,840.87 987.52,835.96 982.30,834.91 Z
           M 1115.00,852.00
           C 1114.77,854.77 1115.98,855.28 1118.00,857.00
             1118.00,857.00 1115.00,852.00 1115.00,852.00 Z
           M 1037.92,855.94
           C 1034.89,857.54 1034.01,859.27 1034.10,862.98
             1034.15,865.01 1035.02,868.09 1037.92,867.26
             1038.92,866.90 1047.22,856.75 1037.92,855.94 Z
           M 548.00,868.00
           C 538.76,867.68 540.99,864.69 535.83,863.03
             535.83,863.03 530.00,862.21 530.00,862.21
             524.80,861.06 521.65,859.22 517.00,857.00
             517.00,857.00 516.00,861.00 516.00,861.00
             516.00,861.00 526.53,868.56 526.53,868.56
             526.53,868.56 535.59,879.63 535.59,879.63
             535.59,879.63 548.28,891.07 548.28,891.07
             548.28,891.07 552.84,893.29 552.84,893.29
             555.34,894.72 557.06,897.06 560.01,897.67
             570.73,899.89 564.09,887.40 563.87,885.09
             563.87,885.09 565.00,878.00 565.00,878.00
             563.32,877.94 561.63,877.99 560.01,877.41
             556.75,876.22 549.64,870.99 548.00,868.00 Z
           M 1131.00,862.00
           C 1131.00,862.00 1130.00,862.00 1130.00,862.00
             1130.00,862.00 1131.00,863.00 1131.00,863.00
             1131.00,863.00 1131.00,862.00 1131.00,862.00 Z
           M 1115.00,864.00
           C 1115.00,864.00 1114.00,864.00 1114.00,864.00
             1114.00,864.00 1115.00,865.00 1115.00,865.00
             1115.00,865.00 1115.00,864.00 1115.00,864.00 Z
           M 1033.28,875.74
           C 1028.36,879.75 1038.16,890.30 1041.69,889.26
             1044.21,888.51 1043.35,885.66 1042.47,884.00
             1040.62,880.47 1037.43,875.93 1033.28,875.74 Z
           M 399.85,888.00
           C 399.96,886.91 400.02,885.26 399.85,884.23
             397.88,878.15 391.02,884.54 396.29,887.26
             397.44,887.86 398.76,887.85 399.85,888.00 Z
           M 812.00,884.00
           C 812.00,884.00 811.00,884.00 811.00,884.00
             811.00,884.00 812.00,885.00 812.00,885.00
             812.00,885.00 812.00,884.00 812.00,884.00 Z
           M 533.00,908.00
           C 533.00,908.00 526.63,904.25 526.63,904.25
             526.63,904.25 520.44,901.08 520.44,901.08
             520.44,901.08 509.00,892.00 509.00,892.00
             505.40,901.11 511.70,902.79 516.83,906.39
             524.74,911.94 530.77,917.28 541.00,918.00
             539.85,909.98 536.71,914.65 533.00,908.00 Z
           M 450.00,898.00
           C 437.75,905.85 438.80,899.10 428.00,907.00
             428.00,907.00 432.00,915.00 432.00,915.00
             432.00,915.00 445.00,911.00 445.00,911.00
             446.68,916.91 458.16,924.72 464.00,926.00
             462.39,915.80 450.77,907.58 450.00,898.00 Z
           M 480.00,898.00
           C 480.00,898.00 477.00,898.00 477.00,898.00
             477.18,899.59 477.91,902.75 477.53,904.08
             476.76,906.80 473.74,907.88 474.94,912.01
             476.32,916.75 480.56,919.81 483.46,923.45
             483.46,923.45 487.02,929.19 487.02,929.19
             488.79,931.15 490.01,931.15 491.79,934.09
             495.86,940.81 494.30,944.77 496.60,947.37
             499.57,950.72 505.98,953.45 509.00,949.00
             509.00,949.00 520.00,954.00 520.00,954.00
             520.00,954.00 525.00,949.00 525.00,949.00
             527.75,953.58 530.83,954.79 536.00,954.00
             536.00,954.00 537.00,952.00 537.00,952.00
             537.00,952.00 529.00,942.00 529.00,942.00
             534.00,941.79 536.29,940.32 539.00,945.00
             539.00,945.00 555.00,948.00 555.00,948.00
             554.93,945.92 555.02,944.23 554.07,942.29
             551.89,937.87 542.66,930.76 538.00,928.96
             538.00,928.96 525.01,925.73 525.01,925.73
             525.01,925.73 514.00,920.13 514.00,920.13
             498.54,913.39 501.54,916.03 488.00,905.00
             484.91,902.49 482.09,901.38 480.00,898.00 Z
           M 1019.85,919.60
           C 1017.91,919.73 1015.31,919.78 1014.04,921.58
             1012.68,923.51 1013.70,926.65 1016.14,927.13
             1019.43,927.77 1025.78,921.92 1019.85,919.60 Z
           M 1067.31,934.64
           C 1063.10,938.15 1066.85,942.12 1069.87,940.83
             1072.95,939.52 1074.40,933.74 1067.31,934.64 Z
           M 1040.32,938.70
           C 1035.25,942.78 1044.04,948.05 1046.68,947.26
             1049.13,946.53 1048.46,943.70 1047.38,942.10
             1045.51,939.34 1043.43,938.58 1040.32,938.70 Z
           M 1021.00,944.84
           C 1021.00,944.84 1010.31,944.84 1010.31,944.84
             1007.49,945.82 1007.97,949.74 1009.60,951.69
             1012.73,955.43 1017.27,953.69 1019.43,949.94
             1020.44,948.19 1020.61,946.90 1021.00,944.84 Z
           M 1041.00,951.00
           C 1040.60,949.59 1039.96,946.66 1039.02,945.62
             1037.06,943.43 1033.99,945.18 1034.74,947.85
             1035.39,950.13 1038.09,951.10 1040.00,952.00
             1040.00,952.00 1041.00,951.00 1041.00,951.00 Z
           M 989.00,951.45
           C 980.89,953.87 978.24,957.98 980.61,966.00
             981.46,968.89 981.79,970.47 984.15,972.61
             987.44,975.61 990.78,975.94 995.00,976.00
             998.83,976.05 1005.58,976.28 1008.28,973.30
             1010.80,970.76 1009.58,966.75 1008.28,964.04
             1005.18,958.33 995.46,951.46 989.00,951.45 Z
           M 1099.00,962.00
           C 1094.53,959.85 1089.41,953.52 1089.02,963.00
             1088.61,972.89 1091.06,972.82 1092.71,978.83
             1092.71,978.83 1093.93,988.00 1093.93,988.00
             1093.93,988.00 1098.98,1000.00 1098.98,1000.00
             1098.98,1000.00 1104.01,1025.00 1104.01,1025.00
             1104.01,1025.00 1106.29,1034.00 1106.29,1034.00
             1107.40,1040.58 1103.18,1055.25 1106.89,1059.68
             1111.81,1065.55 1123.48,1055.07 1124.74,1049.83
             1124.74,1049.83 1124.74,1039.00 1124.74,1039.00
             1125.16,1027.24 1123.33,1024.06 1120.14,1013.42
             1118.90,1009.30 1120.03,1010.05 1117.44,1005.00
             1117.44,1005.00 1113.74,997.00 1113.74,997.00
             1108.32,986.25 1100.26,974.24 1099.00,962.00 Z
           M 319.00,975.00
           C 319.00,975.00 318.00,975.00 318.00,975.00
             318.00,975.00 319.00,976.00 319.00,976.00
             319.00,976.00 319.00,975.00 319.00,975.00 Z
           M 493.00,978.00
           C 487.08,978.07 485.83,977.98 484.00,984.00
             484.00,984.00 493.00,982.00 493.00,982.00
             493.00,982.00 493.00,978.00 493.00,978.00 Z
           M 550.00,986.00
           C 548.67,988.82 548.50,989.25 550.00,992.00
             550.00,992.00 550.00,986.00 550.00,986.00 Z
           M 508.00,1002.00
           C 514.78,997.86 507.56,990.00 503.96,988.60
             502.39,987.99 500.65,988.06 499.00,988.00
             498.55,990.75 496.62,995.98 496.98,998.00
             498.14,1004.37 506.01,1007.58 510.00,1012.00
             510.00,1012.00 508.00,1002.00 508.00,1002.00 Z
           M 490.00,1053.00
           C 491.57,1050.53 494.16,1047.30 493.65,1044.21
             493.25,1041.77 491.36,1041.26 490.22,1037.90
             490.22,1037.90 487.74,1025.00 487.74,1025.00
             487.74,1025.00 485.41,1018.00 485.41,1018.00
             485.41,1018.00 484.56,1000.98 484.56,1000.98
             483.69,998.04 481.56,998.21 479.00,998.00
             479.00,998.00 479.00,1002.00 479.00,1002.00
             474.30,1003.65 474.33,1006.55 473.00,1011.00
             473.00,1011.00 478.00,1012.00 478.00,1012.00
             477.05,1020.72 479.20,1023.33 480.18,1031.26
             480.18,1031.26 480.18,1036.09 480.18,1036.09
             481.47,1042.48 486.18,1042.97 480.18,1049.00
             480.18,1049.00 483.55,1059.00 483.55,1059.00
             483.55,1059.00 484.56,1071.00 484.56,1071.00
             484.56,1071.00 484.56,1080.00 484.56,1080.00
             484.56,1080.00 489.15,1109.00 489.15,1109.00
             489.15,1109.00 489.15,1138.28 489.15,1138.28
             489.15,1138.28 490.58,1144.00 490.58,1144.00
             490.58,1144.00 490.58,1151.00 490.58,1151.00
             490.58,1151.00 494.15,1160.00 494.15,1160.00
             494.15,1160.00 494.15,1167.91 494.15,1167.91
             494.15,1167.91 494.15,1187.00 494.15,1187.00
             494.15,1187.00 497.96,1188.00 497.96,1188.00
             497.96,1188.00 497.96,1162.00 497.96,1162.00
             497.96,1162.00 496.27,1150.17 496.27,1150.17
             496.27,1150.17 496.27,1144.91 496.27,1144.91
             496.27,1144.91 495.22,1139.00 495.22,1139.00
             495.22,1139.00 495.79,1132.00 495.79,1132.00
             495.79,1132.00 495.19,1125.00 495.19,1125.00
             495.19,1125.00 495.19,1084.00 495.19,1084.00
             495.19,1084.00 495.19,1075.00 495.19,1075.00
             494.99,1068.07 496.36,1057.33 490.00,1053.00 Z
           M 685.00,1012.00
           C 686.11,1005.38 679.55,1002.19 674.00,1001.00
             674.00,1001.00 674.00,1012.00 674.00,1012.00
             674.00,1012.00 679.00,1008.00 679.00,1008.00
             679.00,1008.00 685.00,1012.00 685.00,1012.00 Z
           M 643.00,1008.00
           C 639.18,1013.00 636.50,1020.22 644.00,1023.00
             644.00,1023.00 643.00,1008.00 643.00,1008.00 Z
           M 610.00,1031.00
           C 600.44,1034.99 598.49,1036.62 594.41,1045.91
             593.57,1047.83 591.95,1049.96 592.12,1052.09
             592.37,1055.10 594.47,1055.35 595.00,1062.00
             602.19,1060.36 599.10,1057.91 605.00,1052.00
             604.41,1049.90 603.49,1047.30 604.03,1045.10
             605.16,1040.51 610.52,1040.33 610.00,1031.00 Z
           M 452.00,1066.00
           C 452.00,1066.00 450.34,1050.00 450.34,1050.00
             450.34,1050.00 449.39,1042.64 449.39,1042.64
             449.39,1042.64 444.00,1042.00 444.00,1042.00
             442.84,1051.37 432.21,1050.64 430.00,1061.00
             430.00,1061.00 424.00,1060.00 424.00,1060.00
             422.72,1065.19 422.06,1065.79 424.00,1071.00
             435.89,1066.02 434.48,1076.31 445.00,1071.00
             445.00,1071.00 444.00,1078.00 444.00,1078.00
             444.00,1078.00 455.00,1076.00 455.00,1076.00
             454.99,1071.79 455.74,1068.61 452.00,1066.00 Z
           M 559.00,1088.00
           C 558.24,1081.53 556.17,1081.78 555.85,1079.00
             555.59,1076.74 557.26,1075.51 557.40,1072.91
             557.55,1070.25 555.91,1067.65 556.15,1065.09
             556.38,1062.66 558.31,1060.79 559.10,1057.96
             559.10,1057.96 559.10,1052.01 559.10,1052.01
             559.10,1052.01 560.42,1047.43 560.42,1047.43
             561.34,1041.80 557.08,1042.05 553.00,1042.00
             553.00,1042.00 549.64,1051.09 549.64,1051.09
             549.64,1051.09 552.51,1060.00 552.51,1060.00
             552.51,1060.00 553.83,1071.99 553.83,1071.99
             553.83,1071.99 553.24,1079.17 553.24,1079.17
             553.24,1079.17 554.00,1088.00 554.00,1088.00
             554.00,1088.00 559.00,1088.00 559.00,1088.00 Z
           M 498.00,1091.00
           C 498.00,1091.00 497.00,1091.00 497.00,1091.00
             497.00,1091.00 498.00,1092.00 498.00,1092.00
             498.00,1092.00 498.00,1091.00 498.00,1091.00 Z
           M 1124.00,1111.00
           C 1125.73,1112.36 1128.84,1115.41 1131.05,1115.38
             1133.79,1115.34 1143.02,1106.13 1142.28,1103.27
             1141.53,1100.34 1137.21,1097.62 1133.21,1099.58
             1129.43,1101.44 1125.33,1107.14 1124.00,1111.00 Z
           M 1148.00,1112.00
           C 1148.00,1112.00 1146.00,1112.00 1146.00,1112.00
             1146.00,1112.00 1137.53,1122.56 1137.53,1122.56
             1137.53,1122.56 1133.74,1128.00 1133.74,1128.00
             1133.74,1128.00 1139.00,1135.00 1139.00,1135.00
             1139.00,1135.00 1150.00,1125.00 1150.00,1125.00
             1150.00,1125.00 1148.00,1112.00 1148.00,1112.00 Z
           M 614.00,1142.00
           C 613.18,1132.16 606.51,1137.00 607.00,1145.00
             607.00,1145.00 614.00,1142.00 614.00,1142.00 Z
           M 1145.00,1161.00
           C 1148.63,1155.05 1156.45,1155.72 1161.47,1145.00
             1162.67,1142.44 1164.15,1135.90 1159.15,1136.44
             1155.50,1136.83 1149.53,1146.41 1146.79,1147.11
             1145.40,1147.63 1144.32,1147.22 1143.00,1147.11
             1139.70,1152.83 1136.27,1158.34 1145.00,1161.00 Z
           M 400.00,1152.00
           C 398.05,1154.53 394.28,1163.96 395.03,1167.00
             395.70,1169.75 399.73,1176.96 403.27,1173.39
             406.46,1170.16 402.32,1168.66 405.00,1162.00
             405.00,1162.00 409.00,1166.00 409.00,1166.00
             409.00,1166.00 410.00,1162.00 410.00,1162.00
             405.45,1160.34 402.23,1156.21 400.00,1152.00 Z
           M 1081.00,1212.00
           C 1085.39,1208.06 1079.97,1200.69 1076.53,1197.72
             1076.53,1197.72 1071.28,1194.59 1071.28,1194.59
             1068.53,1192.91 1065.59,1191.06 1062.60,1193.85
             1060.27,1196.03 1061.14,1202.79 1060.83,1206.00
             1060.50,1209.50 1058.82,1222.40 1059.52,1224.96
             1059.52,1224.96 1073.46,1248.00 1073.46,1248.00
             1074.79,1250.53 1078.91,1261.67 1080.56,1262.85
             1082.25,1263.83 1086.84,1263.06 1089.00,1262.85
             1089.00,1262.85 1096.00,1262.85 1096.00,1262.85
             1096.00,1262.85 1102.00,1261.77 1102.00,1261.77
             1102.00,1261.77 1110.00,1261.77 1110.00,1261.77
             1108.72,1251.12 1099.31,1248.71 1094.72,1241.83
             1094.72,1241.83 1090.65,1230.00 1090.65,1230.00
             1088.73,1225.15 1083.80,1216.64 1081.00,1212.00 Z
           M 498.00,1195.00
           C 493.17,1200.60 492.53,1208.63 498.00,1214.00
             498.00,1214.00 498.00,1195.00 498.00,1195.00 Z
           M 620.00,1199.00
           C 620.00,1199.00 617.00,1199.00 617.00,1199.00
             617.00,1199.00 612.94,1206.04 612.94,1206.04
             612.94,1206.04 618.17,1216.00 618.17,1216.00
             618.17,1216.00 618.17,1230.98 618.17,1230.98
             618.17,1230.98 616.00,1236.00 616.00,1236.00
             616.00,1236.00 617.87,1245.42 617.87,1245.42
             617.82,1248.99 613.73,1257.02 616.59,1263.94
             618.04,1267.45 621.87,1269.15 623.74,1264.87
             625.20,1261.52 624.68,1252.45 625.00,1248.00
             631.56,1245.62 626.82,1241.40 624.00,1238.00
             624.00,1238.00 628.13,1235.69 628.13,1235.69
             628.13,1235.69 628.13,1218.17 628.13,1218.17
             628.13,1218.17 625.05,1212.54 625.05,1212.54
             625.05,1212.54 625.05,1206.00 625.05,1206.00
             625.05,1206.00 619.00,1204.00 619.00,1204.00
             619.00,1204.00 620.00,1199.00 620.00,1199.00 Z
           M 391.00,1208.00
           C 391.00,1208.00 388.00,1208.00 388.00,1208.00
             388.00,1208.00 389.00,1214.00 389.00,1214.00
             389.00,1214.00 392.00,1212.00 392.00,1212.00
             392.00,1212.00 391.00,1208.00 391.00,1208.00 Z
           M 385.00,1255.00
           C 385.00,1255.00 379.00,1255.00 379.00,1255.00
             376.97,1264.45 372.46,1263.93 373.09,1274.00
             373.82,1285.71 381.66,1281.59 384.40,1275.83
             386.72,1271.49 384.37,1269.18 384.40,1266.72
             384.07,1262.53 386.53,1264.04 385.00,1255.00 Z
           M 250.00,1273.00
           C 250.00,1273.00 249.00,1273.00 249.00,1273.00
             249.00,1273.00 250.00,1274.00 250.00,1274.00
             250.00,1274.00 250.00,1273.00 250.00,1273.00 Z
           M 498.00,1286.00
           C 498.42,1284.24 499.84,1280.56 499.57,1279.06
             499.13,1276.58 496.65,1275.77 495.17,1277.59
             493.68,1279.42 494.00,1284.64 494.00,1287.00
             494.00,1287.00 498.00,1286.00 498.00,1286.00 Z
           M 1211.00,1291.00
           C 1212.31,1290.85 1213.62,1290.83 1214.85,1290.26
             1220.76,1287.55 1214.81,1280.99 1212.13,1287.15
             1212.13,1287.15 1211.00,1291.00 1211.00,1291.00 Z
           M 498.00,1288.00
           C 498.00,1288.00 496.00,1288.00 496.00,1288.00
             496.00,1288.00 495.00,1292.00 495.00,1292.00
             495.00,1292.00 498.00,1293.00 498.00,1293.00
             498.00,1293.00 498.00,1288.00 498.00,1288.00 Z
           M 713.00,1306.00
           C 705.67,1301.55 709.19,1295.77 699.00,1292.00
             699.00,1292.00 699.54,1299.00 699.54,1299.00
             699.54,1299.00 698.84,1308.00 698.84,1308.00
             698.84,1308.00 699.47,1313.00 699.47,1313.00
             699.47,1313.00 699.47,1332.00 699.47,1332.00
             700.17,1337.23 702.20,1341.62 705.00,1346.00
             699.86,1347.87 701.64,1351.35 702.00,1356.00
             707.76,1359.50 704.10,1361.86 704.79,1367.00
             705.30,1370.85 706.64,1370.57 707.00,1378.00
             709.25,1377.49 711.73,1376.99 713.40,1375.23
             715.17,1373.38 714.78,1371.36 715.27,1369.09
             715.27,1369.09 716.68,1364.72 716.68,1364.72
             717.21,1361.29 714.79,1355.86 712.00,1354.00
             712.00,1354.00 712.00,1351.00 712.00,1351.00
             719.19,1346.35 722.43,1330.74 719.02,1323.00
             714.69,1313.18 709.45,1315.93 713.00,1306.00 Z
           M 1234.00,1321.00
           C 1239.07,1319.04 1240.26,1315.30 1235.85,1311.43
             1233.77,1309.59 1223.83,1306.09 1220.96,1306.22
             1220.96,1306.22 1207.00,1308.85 1207.00,1308.85
             1207.00,1308.85 1188.00,1311.01 1188.00,1311.01
             1181.06,1313.24 1181.57,1317.36 1173.00,1317.13
             1164.75,1316.91 1166.70,1318.40 1162.00,1319.37
             1159.18,1319.64 1156.23,1318.49 1153.17,1319.37
             1148.06,1321.34 1138.91,1331.28 1138.22,1331.44
             1136.58,1332.41 1127.99,1331.18 1125.00,1331.44
             1114.81,1331.52 1113.07,1330.67 1104.00,1337.00
             1101.75,1338.57 1090.71,1345.51 1100.06,1346.83
             1100.06,1346.83 1103.00,1346.83 1103.00,1346.83
             1111.11,1346.20 1115.98,1344.66 1124.00,1348.00
             1124.00,1348.00 1114.00,1354.99 1114.00,1354.99
             1114.00,1354.99 1103.00,1356.92 1103.00,1356.92
             1103.00,1356.92 1093.85,1360.94 1093.85,1360.94
             1093.85,1360.94 1084.00,1358.00 1084.00,1358.00
             1085.11,1356.31 1085.90,1354.97 1087.38,1353.53
             1089.47,1351.48 1094.38,1349.25 1092.83,1346.57
             1091.11,1343.39 1086.23,1345.50 1084.00,1346.57
             1078.62,1349.42 1070.64,1356.93 1067.29,1362.04
             1064.83,1366.09 1064.50,1374.61 1067.29,1378.69
             1068.80,1381.18 1071.77,1381.07 1072.77,1383.31
             1073.69,1385.37 1072.15,1388.19 1071.20,1390.00
             1069.10,1394.03 1062.93,1403.99 1058.83,1405.96
             1056.90,1406.62 1055.03,1406.35 1053.00,1405.96
             1041.58,1404.91 1037.25,1389.54 1028.15,1391.37
             1022.16,1392.57 1028.44,1398.90 1030.00,1401.00
             1020.97,1396.63 1004.66,1389.48 995.00,1388.29
             980.52,1386.50 977.89,1388.86 966.00,1389.00
             958.16,1389.09 954.63,1389.13 947.00,1391.83
             938.80,1394.73 936.28,1400.40 928.00,1395.19
             928.00,1395.19 924.00,1392.00 924.00,1392.00
             924.00,1392.00 935.00,1393.00 935.00,1393.00
             937.88,1387.60 947.00,1384.16 953.00,1384.00
             954.42,1376.30 950.74,1375.61 944.00,1376.09
             936.88,1376.60 925.76,1379.54 922.00,1386.00
             911.73,1377.29 903.41,1380.24 892.00,1384.30
             892.00,1384.30 883.09,1387.43 883.09,1387.43
             874.70,1392.01 876.76,1394.38 865.00,1395.03
             862.14,1395.19 851.25,1396.24 849.02,1397.06
             846.85,1397.85 843.97,1399.10 845.17,1401.95
             846.11,1404.20 852.67,1408.10 855.00,1410.00
             850.65,1410.04 842.71,1410.87 839.74,1414.43
             835.72,1419.23 838.83,1426.54 844.91,1427.41
             849.37,1428.04 850.93,1423.20 856.00,1422.80
             856.00,1422.80 866.00,1422.80 866.00,1422.80
             873.52,1423.01 891.58,1422.74 897.96,1419.82
             904.69,1416.75 902.31,1411.29 912.00,1407.91
             912.00,1407.91 930.00,1404.26 930.00,1404.26
             930.00,1404.26 938.00,1404.79 938.00,1404.79
             938.00,1404.79 946.00,1404.10 946.00,1404.10
             946.00,1404.10 956.00,1405.00 956.00,1405.00
             972.48,1405.19 975.88,1406.78 991.00,1408.72
             996.66,1409.44 1003.73,1409.55 1009.00,1411.79
             1022.33,1417.44 1032.68,1430.92 1049.00,1426.51
             1052.15,1425.65 1065.14,1418.79 1067.40,1416.53
             1072.17,1411.78 1080.53,1395.14 1090.04,1386.10
             1101.31,1375.39 1115.04,1371.54 1123.87,1365.65
             1126.68,1363.78 1127.04,1362.48 1129.26,1360.59
             1132.89,1357.49 1145.39,1349.78 1150.00,1347.95
             1152.39,1346.99 1156.83,1345.99 1155.34,1342.30
             1154.27,1339.63 1151.13,1340.35 1149.00,1340.87
             1149.00,1340.87 1131.00,1345.00 1131.00,1345.00
             1140.12,1340.31 1144.43,1334.76 1147.17,1333.56
             1153.12,1330.96 1157.08,1335.86 1160.00,1328.00
             1164.80,1329.05 1165.46,1328.69 1170.00,1327.00
             1170.00,1327.00 1171.00,1330.00 1171.00,1330.00
             1166.85,1331.18 1162.02,1333.00 1159.58,1336.82
             1158.20,1338.98 1157.51,1342.03 1160.31,1343.34
             1162.95,1344.69 1170.03,1343.69 1173.00,1343.34
             1173.00,1343.34 1193.00,1340.57 1193.00,1340.57
             1198.79,1339.07 1197.11,1336.70 1205.00,1336.87
             1205.00,1336.87 1226.00,1335.04 1226.00,1335.04
             1226.00,1335.04 1243.00,1335.04 1243.00,1335.04
             1246.34,1334.98 1249.94,1335.06 1252.77,1332.99
             1258.56,1328.77 1254.27,1326.10 1249.00,1326.00
             1249.00,1326.00 1240.00,1326.00 1240.00,1326.00
             1240.00,1326.00 1229.00,1325.34 1229.00,1325.34
             1229.00,1325.34 1218.00,1326.00 1218.00,1326.00
             1218.00,1326.00 1212.00,1326.00 1212.00,1326.00
             1205.77,1325.89 1205.60,1324.55 1202.87,1324.44
             1202.87,1324.44 1193.00,1325.00 1193.00,1325.00
             1193.00,1325.00 1193.00,1322.00 1193.00,1322.00
             1193.00,1322.00 1217.00,1322.00 1217.00,1322.00
             1222.45,1321.93 1228.89,1321.84 1233.00,1318.00
             1233.00,1318.00 1234.00,1321.00 1234.00,1321.00 Z
           M 1265.00,1316.00
           C 1263.73,1315.14 1262.29,1314.03 1260.82,1313.57
             1257.06,1312.39 1245.24,1313.79 1247.67,1320.66
             1249.45,1325.71 1260.20,1323.81 1262.44,1322.02
             1264.23,1320.58 1264.55,1318.10 1265.00,1316.00 Z
           M 498.00,1316.00
           C 498.00,1316.00 496.00,1316.00 496.00,1316.00
             496.00,1316.00 495.00,1321.00 495.00,1321.00
             495.00,1321.00 498.00,1322.00 498.00,1322.00
             498.00,1322.00 498.00,1316.00 498.00,1316.00 Z
           M 600.00,1323.00
           C 595.90,1324.33 591.56,1329.18 590.44,1333.43
             590.44,1333.43 589.53,1341.00 589.53,1341.00
             589.53,1341.00 586.39,1350.58 586.39,1350.58
             586.39,1350.58 586.39,1356.00 586.39,1356.00
             585.30,1360.50 583.04,1359.52 582.00,1366.00
             582.00,1366.00 595.00,1362.00 595.00,1362.00
             595.56,1355.03 597.08,1356.47 599.46,1351.00
             602.26,1344.58 604.37,1338.04 605.00,1331.00
             601.40,1328.76 601.09,1326.96 600.00,1323.00 Z
           M 1250.00,1348.00
           C 1248.21,1337.38 1240.41,1339.33 1232.00,1338.96
             1218.65,1338.38 1220.41,1337.11 1206.00,1340.74
             1199.50,1342.38 1191.08,1346.92 1185.00,1346.54
             1179.86,1346.21 1178.68,1346.11 1174.00,1348.93
             1171.24,1350.60 1168.28,1352.75 1167.45,1356.04
             1166.39,1360.17 1168.93,1366.93 1174.02,1366.36
             1178.94,1365.82 1187.53,1358.96 1192.00,1357.14
             1196.39,1355.36 1205.93,1356.02 1211.00,1356.00
             1215.99,1355.98 1216.16,1355.87 1221.00,1355.00
             1222.12,1361.36 1224.97,1359.29 1230.00,1358.00
             1229.53,1352.29 1228.59,1351.33 1223.00,1353.00
             1223.00,1353.00 1231.00,1345.00 1231.00,1345.00
             1237.29,1354.76 1241.68,1351.41 1250.00,1348.00 Z
           M 500.00,1354.00
           C 500.00,1354.00 495.00,1356.00 495.00,1356.00
             495.90,1359.99 496.15,1360.52 500.00,1362.00
             500.00,1362.00 501.00,1361.00 501.00,1361.00
             501.00,1361.00 500.00,1354.00 500.00,1354.00 Z
           M 975.00,1381.00
           C 974.36,1373.17 970.78,1373.88 964.00,1374.00
             962.42,1374.03 959.90,1373.97 958.61,1375.02
             957.71,1375.76 957.40,1376.79 957.58,1377.93
             958.18,1381.86 964.00,1381.98 967.00,1381.70
             967.00,1381.70 975.00,1381.00 975.00,1381.00 Z
           M 1178.00,1376.00
           C 1178.00,1376.00 1160.00,1388.00 1160.00,1388.00
             1160.00,1388.00 1157.00,1399.00 1157.00,1399.00
             1168.02,1395.93 1165.72,1392.74 1171.94,1385.13
             1175.71,1380.51 1177.48,1382.60 1178.00,1376.00 Z
           M 362.88,1396.76
           C 361.51,1397.32 361.02,1397.11 359.99,1398.57
             358.92,1400.09 355.23,1416.96 363.96,1415.58
             367.06,1415.09 367.71,1412.49 368.74,1410.00
             369.41,1408.35 370.61,1405.94 370.51,1404.17
             370.30,1400.59 366.10,1397.26 362.88,1396.76 Z
           M 1210.00,1398.00
           C 1210.00,1398.00 1206.00,1404.00 1206.00,1404.00
             1209.35,1402.11 1209.37,1401.76 1210.00,1398.00 Z
           M 585.00,1402.00
           C 583.13,1403.71 580.54,1405.96 579.31,1408.17
             577.21,1411.93 578.00,1424.18 578.01,1429.00
             578.01,1429.00 578.01,1448.00 578.01,1448.00
             578.01,1448.00 575.94,1463.00 575.94,1463.00
             575.94,1463.00 575.94,1474.00 575.94,1474.00
             575.94,1474.00 573.24,1486.96 573.24,1486.96
             573.24,1486.96 573.24,1492.27 573.24,1492.27
             572.62,1495.70 571.20,1497.28 571.69,1501.00
             572.14,1504.30 573.36,1506.14 573.08,1510.58
             572.82,1514.77 569.03,1523.52 573.58,1526.98
             576.27,1529.02 581.34,1527.69 582.97,1524.85
             584.51,1522.17 583.25,1519.43 583.52,1517.00
             584.25,1510.58 589.54,1508.79 595.00,1508.00
             596.20,1511.33 596.61,1511.22 600.00,1512.00
             601.29,1505.47 599.01,1493.48 599.00,1486.00
             598.99,1479.32 598.80,1472.62 597.86,1466.00
             597.86,1466.00 595.88,1457.00 595.88,1457.00
             595.88,1457.00 594.89,1438.00 594.89,1438.00
             594.89,1438.00 594.89,1425.00 594.89,1425.00
             593.75,1418.21 591.37,1420.60 593.00,1412.00
             588.32,1409.53 587.40,1406.54 585.00,1402.00 Z
           M 1205.00,1404.00
           C 1197.80,1407.40 1197.90,1411.81 1206.00,1411.00
             1206.00,1411.00 1205.00,1404.00 1205.00,1404.00 Z
           M 1155.00,1411.00
           C 1155.00,1411.00 1151.00,1412.00 1151.00,1412.00
             1151.00,1412.00 1153.00,1418.00 1153.00,1418.00
             1153.00,1418.00 1155.00,1411.00 1155.00,1411.00 Z
           M 1197.31,1413.91
           C 1194.44,1415.81 1195.48,1416.83 1194.51,1420.00
             1194.51,1420.00 1192.70,1424.98 1192.70,1424.98
             1192.09,1427.92 1193.50,1430.42 1196.65,1428.77
             1202.32,1425.79 1206.07,1415.64 1197.31,1413.91 Z
           M 503.00,1417.00
           C 503.00,1417.00 499.00,1416.00 499.00,1416.00
             496.16,1422.92 491.30,1426.73 501.00,1431.00
             503.55,1424.95 503.00,1423.34 503.00,1417.00 Z
           M 1148.00,1431.00
           C 1148.00,1431.00 1142.00,1440.00 1142.00,1440.00
             1142.00,1440.00 1147.00,1441.00 1147.00,1441.00
             1147.00,1441.00 1148.00,1447.00 1148.00,1447.00
             1148.00,1447.00 1148.00,1431.00 1148.00,1431.00 Z
           M 1260.00,1431.00
           C 1260.00,1431.00 1258.00,1431.00 1258.00,1431.00
             1255.00,1443.48 1262.83,1449.40 1258.00,1456.00
             1259.08,1461.73 1260.16,1465.00 1259.96,1471.00
             1259.54,1484.19 1258.54,1486.17 1264.11,1499.00
             1265.63,1502.49 1265.22,1503.08 1268.00,1506.00
             1271.71,1496.10 1269.33,1488.93 1268.81,1479.00
             1268.84,1472.03 1270.71,1468.01 1268.81,1460.00
             1268.81,1460.00 1265.20,1452.00 1265.20,1452.00
             1265.20,1452.00 1263.51,1441.00 1263.51,1441.00
             1262.12,1436.42 1260.85,1437.10 1260.00,1431.00 Z
           M 1190.31,1433.64
           C 1189.92,1433.96 1189.32,1433.86 1188.61,1435.30
             1188.61,1435.30 1187.09,1448.00 1187.09,1448.00
             1186.66,1454.10 1187.78,1455.16 1188.00,1458.28
             1188.00,1458.28 1187.13,1472.00 1187.13,1472.00
             1187.13,1472.00 1188.46,1480.00 1188.46,1480.00
             1188.46,1480.00 1187.36,1495.85 1187.36,1495.85
             1187.95,1498.43 1190.34,1499.23 1192.07,1497.38
             1193.41,1495.95 1194.26,1491.01 1194.55,1489.00
             1194.55,1489.00 1195.17,1469.00 1195.17,1469.00
             1195.17,1469.00 1197.39,1455.00 1197.39,1455.00
             1197.39,1455.00 1196.22,1447.00 1196.22,1447.00
             1196.30,1444.33 1201.16,1432.30 1190.31,1433.64 Z
           M 500.00,1434.00
           C 498.03,1434.85 496.39,1435.32 495.17,1437.27
             493.77,1439.52 493.49,1454.10 494.03,1457.00
             495.12,1462.73 497.10,1465.85 503.00,1464.00
             503.00,1464.00 502.00,1462.00 502.00,1462.00
             506.31,1459.06 503.83,1457.24 503.29,1453.00
             502.55,1447.14 505.88,1443.87 500.00,1434.00 Z
           M 360.00,1436.00
           C 360.00,1436.00 360.00,1442.00 360.00,1442.00
             360.00,1442.00 360.00,1436.00 360.00,1436.00 Z
           M 990.00,1832.00
           C 990.00,1832.00 994.48,1829.11 994.48,1829.11
             995.55,1828.09 1001.35,1819.11 1001.48,1817.91
             1001.85,1814.62 997.80,1806.35 996.53,1803.00
             996.53,1803.00 991.92,1791.17 991.92,1791.17
             991.92,1791.17 986.19,1781.00 986.19,1781.00
             986.19,1781.00 983.68,1774.00 983.68,1774.00
             983.68,1774.00 977.09,1759.00 977.09,1759.00
             973.19,1748.93 975.10,1751.42 972.82,1744.00
             972.82,1744.00 961.76,1710.00 961.76,1710.00
             961.76,1710.00 958.83,1703.00 958.83,1703.00
             958.83,1703.00 955.09,1688.00 955.09,1688.00
             952.86,1680.13 949.10,1666.94 949.00,1659.00
             948.97,1656.03 949.26,1651.72 948.27,1649.00
             948.27,1649.00 941.32,1637.91 941.32,1637.91
             941.32,1637.91 935.51,1624.00 935.51,1624.00
             927.92,1604.78 929.20,1601.80 929.00,1582.00
             928.93,1574.57 929.16,1569.39 930.29,1562.00
             930.29,1562.00 931.89,1553.00 931.89,1553.00
             932.06,1548.58 930.57,1546.97 930.13,1543.00
             930.13,1543.00 928.86,1527.99 928.86,1527.99
             928.86,1527.99 925.44,1513.00 925.44,1513.00
             925.44,1513.00 923.67,1503.00 923.67,1503.00
             923.67,1503.00 923.67,1497.00 923.67,1497.00
             923.67,1497.00 921.30,1488.00 921.30,1488.00
             921.30,1488.00 918.11,1462.00 918.11,1462.00
             916.94,1457.67 911.52,1443.69 906.87,1442.71
             903.69,1442.03 902.19,1445.59 901.36,1448.00
             898.93,1455.37 899.02,1459.70 901.36,1467.00
             901.36,1467.00 903.49,1474.00 903.49,1474.00
             903.49,1474.00 905.54,1485.72 905.54,1485.72
             905.54,1485.72 909.75,1493.00 909.75,1493.00
             909.75,1493.00 915.40,1509.00 915.40,1509.00
             917.41,1514.18 920.25,1517.99 919.66,1524.00
             919.66,1524.00 918.18,1533.00 918.18,1533.00
             918.18,1533.00 919.83,1543.00 919.83,1543.00
             919.83,1543.00 921.00,1564.00 921.00,1564.00
             921.00,1564.00 922.00,1581.00 922.00,1581.00
             922.00,1581.00 923.37,1610.00 923.37,1610.00
             923.37,1610.00 938.74,1666.00 938.74,1666.00
             938.74,1666.00 946.40,1689.00 946.40,1689.00
             946.40,1689.00 948.22,1700.00 948.22,1700.00
             948.22,1700.00 957.39,1727.00 957.39,1727.00
             957.39,1727.00 958.51,1734.00 958.51,1734.00
             958.51,1734.00 961.58,1746.00 961.58,1746.00
             961.58,1746.00 964.51,1762.00 964.51,1762.00
             964.51,1762.00 969.22,1778.00 969.22,1778.00
             969.22,1778.00 978.02,1798.00 978.02,1798.00
             978.02,1798.00 981.59,1808.83 981.59,1808.83
             983.88,1813.80 986.63,1817.13 988.42,1823.00
             988.42,1823.00 990.00,1832.00 990.00,1832.00 Z
           M 1143.00,1451.00
           C 1143.00,1451.00 1142.00,1455.00 1142.00,1455.00
             1142.00,1455.00 1145.00,1454.00 1145.00,1454.00
             1145.00,1454.00 1145.00,1453.00 1145.00,1453.00
             1145.00,1453.00 1143.00,1451.00 1143.00,1451.00 Z
           M 990.00,1468.00
           C 990.00,1468.00 988.00,1468.00 988.00,1468.00
             985.59,1474.14 986.52,1477.19 985.21,1479.83
             984.86,1481.15 970.91,1496.32 985.21,1498.00
             985.28,1493.02 985.67,1491.64 988.70,1487.58
             990.29,1485.44 994.12,1481.41 994.43,1478.93
             994.91,1475.02 991.47,1474.77 990.00,1468.00 Z
           M 1052.00,1468.00
           C 1051.49,1470.64 1051.82,1470.57 1054.00,1472.00
             1054.00,1472.00 1052.00,1468.00 1052.00,1468.00 Z
           M 1048.00,1477.00
           C 1046.34,1479.53 1046.34,1479.47 1048.00,1482.00
             1048.00,1482.00 1048.00,1477.00 1048.00,1477.00 Z
           M 1284.00,1501.00
           C 1284.00,1501.00 1283.00,1501.00 1283.00,1501.00
             1283.00,1501.00 1284.00,1502.00 1284.00,1502.00
             1284.00,1502.00 1284.00,1501.00 1284.00,1501.00 Z
           M 353.00,1585.00
           C 356.74,1578.11 357.95,1581.51 358.02,1572.00
             358.02,1572.00 358.02,1553.00 358.02,1553.00
             358.02,1553.00 358.82,1545.00 358.82,1545.00
             358.82,1545.00 358.30,1538.01 358.30,1538.01
             358.30,1538.01 358.30,1532.58 358.30,1532.58
             358.30,1532.58 358.30,1525.00 358.30,1525.00
             358.30,1525.00 358.91,1518.00 358.91,1518.00
             359.29,1512.08 358.80,1507.14 352.98,1504.24
             350.70,1503.09 349.37,1502.88 347.11,1504.24
             345.26,1505.38 344.04,1507.24 342.88,1509.00
             337.03,1517.86 338.92,1521.53 340.88,1531.00
             342.31,1537.88 344.08,1544.98 344.00,1552.00
             343.91,1559.43 342.55,1559.71 342.55,1564.00
             342.55,1564.00 342.55,1571.00 342.55,1571.00
             342.55,1571.00 342.55,1576.96 342.55,1576.96
             343.64,1581.36 348.91,1584.38 353.00,1585.00 Z
           M 980.00,1502.00
           C 980.00,1502.00 980.00,1508.00 980.00,1508.00
             980.00,1508.00 980.00,1502.00 980.00,1502.00 Z
           M 1270.00,1512.00
           C 1270.00,1512.00 1270.00,1516.00 1270.00,1516.00
             1270.00,1516.00 1270.00,1512.00 1270.00,1512.00 Z
           M 1071.00,1575.00
           C 1066.83,1573.73 1064.91,1569.52 1062.69,1566.00
             1057.95,1558.47 1052.68,1551.22 1051.51,1542.00
             1050.77,1536.22 1055.49,1532.58 1052.38,1530.03
             1050.22,1528.25 1036.54,1530.30 1036.58,1536.06
             1036.61,1539.51 1038.76,1543.78 1039.91,1547.00
             1042.03,1552.90 1044.24,1558.57 1047.47,1564.00
             1047.47,1564.00 1052.04,1571.00 1052.04,1571.00
             1052.04,1571.00 1059.00,1587.91 1059.00,1587.91
             1061.16,1591.17 1063.74,1592.06 1066.04,1595.18
             1066.04,1595.18 1072.24,1608.00 1072.24,1608.00
             1081.51,1622.92 1086.21,1625.17 1090.00,1644.00
             1104.52,1630.24 1084.08,1612.49 1085.19,1599.00
             1085.49,1595.26 1089.53,1584.16 1087.89,1581.56
             1085.80,1578.25 1076.69,1579.56 1071.00,1575.00 Z
           M 980.00,1530.00
           C 980.00,1530.00 983.00,1542.00 983.00,1542.00
             983.00,1542.00 989.00,1543.00 989.00,1543.00
             989.00,1543.00 988.00,1552.00 988.00,1552.00
             988.00,1552.00 990.00,1552.00 990.00,1552.00
             991.05,1550.49 992.48,1548.88 992.45,1546.92
             992.43,1545.46 991.44,1543.99 990.82,1542.71
             987.76,1536.42 986.37,1533.37 980.00,1530.00 Z
           M 1278.00,1543.00
           C 1278.00,1543.00 1274.00,1545.00 1274.00,1545.00
             1274.00,1545.00 1277.29,1553.00 1277.29,1553.00
             1277.29,1553.00 1278.00,1569.00 1278.00,1569.00
             1286.45,1565.87 1280.94,1562.56 1280.14,1556.99
             1279.05,1549.38 1280.72,1553.46 1278.00,1543.00 Z
           M 995.00,1557.00
           C 995.00,1557.00 995.00,1561.00 995.00,1561.00
             995.00,1561.00 995.00,1557.00 995.00,1557.00 Z
           M 500.00,1558.00
           C 500.00,1558.00 499.00,1558.00 499.00,1558.00
             499.00,1558.00 500.00,1559.00 500.00,1559.00
             500.00,1559.00 500.00,1558.00 500.00,1558.00 Z
           M 505.00,1574.00
           C 503.90,1565.75 506.63,1564.27 501.00,1562.00
             501.00,1562.00 495.00,1572.00 495.00,1572.00
             495.00,1572.00 505.00,1574.00 505.00,1574.00 Z
           M 990.00,1575.00
           C 987.67,1572.28 984.57,1565.73 980.29,1567.04
             979.52,1567.28 978.98,1567.68 978.70,1568.46
             977.74,1571.22 981.55,1574.28 982.58,1577.09
             982.58,1577.09 985.00,1597.00 985.00,1597.00
             987.10,1596.83 988.66,1596.92 990.36,1595.40
             992.47,1593.53 993.56,1589.59 994.53,1587.00
             997.41,1579.27 999.19,1575.56 1000.00,1567.00
             993.47,1567.39 992.27,1568.92 990.00,1575.00 Z
           M 1173.87,1580.93
           C 1173.87,1580.93 1177.99,1580.93 1177.99,1580.93
             1190.34,1578.90 1175.24,1567.19 1173.87,1577.06
             1173.54,1578.28 1173.85,1579.78 1173.87,1580.93 Z
           M 1076.00,1575.00
           C 1076.00,1575.00 1075.00,1575.00 1075.00,1575.00
             1075.00,1575.00 1076.00,1576.00 1076.00,1576.00
             1076.00,1576.00 1076.00,1575.00 1076.00,1575.00 Z
           M 1287.00,1614.00
           C 1285.35,1619.81 1286.30,1622.36 1285.91,1628.00
             1285.73,1630.62 1284.82,1634.53 1285.16,1636.94
             1285.74,1641.03 1288.75,1641.33 1291.47,1638.68
             1293.78,1636.43 1295.36,1632.20 1295.53,1629.00
             1295.98,1620.57 1292.34,1615.43 1292.01,1612.00
             1291.66,1608.43 1294.08,1606.21 1290.99,1601.00
             1286.63,1593.64 1278.22,1590.28 1279.18,1601.00
             1279.70,1606.80 1281.03,1612.14 1287.00,1614.00 Z
           M 1038.00,1598.00
           C 1038.00,1598.00 1035.00,1608.00 1035.00,1608.00
             1035.00,1608.00 1032.00,1607.00 1032.00,1607.00
             1030.73,1609.29 1026.58,1616.57 1026.57,1618.83
             1026.56,1622.17 1029.32,1621.84 1029.14,1628.00
             1029.00,1632.72 1029.32,1632.99 1033.00,1636.00
             1033.72,1628.01 1036.08,1627.60 1034.00,1619.00
             1034.00,1619.00 1041.00,1617.55 1041.00,1617.55
             1041.00,1617.55 1044.94,1616.52 1044.94,1616.52
             1055.26,1612.50 1040.33,1602.31 1038.00,1598.00 Z
           M 1030.00,1606.00
           C 1030.00,1606.00 1029.00,1606.00 1029.00,1606.00
             1029.00,1606.00 1030.00,1607.00 1030.00,1607.00
             1030.00,1607.00 1030.00,1606.00 1030.00,1606.00 Z
           M 601.00,1612.00
           C 601.00,1612.00 600.00,1612.00 600.00,1612.00
             600.00,1612.00 601.00,1613.00 601.00,1613.00
             601.00,1613.00 601.00,1612.00 601.00,1612.00 Z
           M 990.00,1623.00
           C 990.73,1617.99 990.89,1615.76 985.00,1617.00
             985.00,1617.00 989.00,1622.00 989.00,1622.00
             989.00,1622.00 986.00,1632.00 986.00,1632.00
             994.25,1636.05 992.26,1625.04 991.95,1624.54
             991.24,1623.39 990.53,1623.36 990.00,1623.00 Z
           M 1180.00,1622.00
           C 1180.00,1622.00 1177.00,1622.00 1177.00,1622.00
             1177.00,1622.00 1180.00,1628.00 1180.00,1628.00
             1180.00,1628.00 1180.00,1622.00 1180.00,1622.00 Z
           M 1033.00,1638.00
           C 1033.00,1638.00 1028.00,1642.00 1028.00,1642.00
             1028.00,1642.00 1030.21,1653.00 1030.21,1653.00
             1030.21,1653.00 1036.05,1672.00 1036.05,1672.00
             1038.13,1681.03 1035.65,1677.38 1040.05,1691.00
             1041.67,1696.02 1040.34,1701.45 1044.72,1705.51
             1048.70,1709.20 1050.92,1703.16 1051.01,1700.00
             1051.01,1700.00 1051.01,1691.00 1051.01,1691.00
             1051.52,1683.47 1052.18,1677.70 1051.01,1670.00
             1047.59,1654.98 1033.19,1653.42 1033.00,1638.00 Z
           M 1178.02,1656.00
           C 1178.02,1656.00 1175.75,1656.00 1175.75,1656.00
             1175.75,1656.00 1175.75,1663.28 1175.75,1663.28
             1175.75,1663.28 1172.70,1669.72 1172.70,1669.72
             1172.70,1669.72 1175.05,1678.00 1175.05,1678.00
             1169.72,1680.20 1172.35,1687.41 1175.05,1687.39
             1177.99,1687.37 1178.76,1683.18 1178.89,1681.00
             1178.89,1681.00 1178.02,1671.00 1178.02,1671.00
             1178.02,1671.00 1178.02,1656.00 1178.02,1656.00 Z
           M 1013.00,1698.00
           C 1011.26,1702.39 1012.60,1706.92 1011.50,1711.72
             1011.50,1711.72 1007.09,1726.00 1007.09,1726.00
             1006.91,1730.00 1009.79,1732.70 1009.34,1738.00
             1008.83,1741.77 1007.38,1744.04 1009.34,1747.94
             1011.49,1751.77 1014.03,1751.49 1016.74,1753.54
             1019.33,1755.51 1018.80,1756.23 1023.00,1759.00
             1023.00,1759.00 1020.01,1749.99 1020.01,1749.99
             1020.01,1749.99 1022.15,1743.00 1022.15,1743.00
             1022.15,1743.00 1020.14,1736.00 1020.14,1736.00
             1020.14,1736.00 1018.21,1725.00 1018.21,1725.00
             1018.21,1725.00 1017.61,1716.00 1017.61,1716.00
             1017.61,1716.00 1015.34,1709.04 1015.34,1709.04
             1015.34,1709.04 1013.00,1698.00 1013.00,1698.00 Z
           M 1172.90,1712.02
           C 1167.38,1711.48 1165.41,1712.16 1162.09,1716.73
             1161.02,1718.20 1160.32,1719.19 1160.34,1721.09
             1160.38,1723.45 1161.93,1726.04 1163.13,1728.00
             1164.17,1729.68 1165.90,1732.68 1167.96,1733.15
             1170.41,1733.71 1173.52,1730.55 1174.95,1728.88
             1179.64,1723.42 1179.90,1715.58 1172.90,1712.02 Z
           M 1048.00,1712.00
           C 1045.12,1717.41 1048.54,1717.95 1049.15,1723.00
             1049.46,1725.59 1048.17,1731.37 1050.17,1734.90
             1052.59,1738.95 1057.88,1739.26 1057.57,1734.90
             1057.42,1732.84 1055.68,1731.58 1055.14,1727.96
             1054.77,1725.48 1055.24,1723.67 1054.15,1721.09
             1054.15,1721.09 1048.00,1712.00 1048.00,1712.00 Z
           M 1055.39,1747.72
           C 1052.05,1750.59 1054.93,1752.91 1056.79,1752.27
             1058.60,1751.64 1059.82,1747.99 1055.39,1747.72 Z
           M 1015.00,1763.00
           C 1015.00,1763.00 1012.00,1762.00 1012.00,1762.00
             1012.00,1762.00 1012.00,1766.00 1012.00,1766.00
             1012.00,1766.00 1015.00,1763.00 1015.00,1763.00 Z
           M 1010.00,1766.00
           C 1008.27,1768.83 1008.16,1769.23 1010.00,1772.00
             1010.00,1772.00 1010.00,1766.00 1010.00,1766.00 Z
           M 1145.00,1783.00
           C 1149.77,1784.25 1153.94,1786.18 1159.00,1785.82
             1159.00,1785.82 1164.98,1785.03 1164.98,1785.03
             1169.27,1784.34 1171.65,1781.28 1168.40,1777.49
             1167.12,1776.01 1154.89,1769.63 1153.00,1769.51
             1151.07,1769.39 1148.91,1770.28 1147.56,1771.65
             1144.91,1774.33 1145.03,1779.48 1145.00,1783.00 Z
           M 1029.99,1775.00
           C 1025.42,1777.31 1022.41,1779.26 1023.94,1785.00
             1024.42,1786.77 1027.48,1793.64 1029.99,1789.58
             1030.96,1787.77 1029.48,1785.29 1029.99,1781.00
             1030.55,1777.72 1030.72,1778.33 1029.99,1775.00 Z
           M 1058.00,1776.00
           C 1056.06,1781.06 1057.80,1785.29 1063.00,1787.00
             1062.98,1780.79 1063.53,1779.48 1058.00,1776.00 Z
           M 515.00,1786.00
           C 515.00,1786.00 514.00,1792.00 514.00,1792.00
             514.00,1792.00 518.00,1788.00 518.00,1788.00
             518.00,1788.00 517.00,1788.00 517.00,1788.00
             517.00,1788.00 515.00,1786.00 515.00,1786.00 Z
           M 1063.00,1787.00
           C 1063.00,1787.00 1060.95,1793.00 1060.95,1793.00
             1059.56,1799.20 1065.24,1802.16 1067.39,1800.85
             1069.15,1799.78 1068.28,1797.16 1068.08,1795.58
             1067.46,1790.45 1068.57,1789.06 1063.00,1787.00 Z
           M 1033.00,1810.00
           C 1023.98,1813.68 1024.41,1818.98 1033.00,1823.00
             1033.00,1823.00 1033.00,1810.00 1033.00,1810.00 Z
           M 535.00,1822.00
           C 535.00,1822.00 522.00,1832.00 522.00,1832.00
             522.66,1837.00 522.67,1837.55 528.00,1838.00
             528.00,1838.00 529.00,1832.00 529.00,1832.00
             529.00,1832.00 533.00,1832.00 533.00,1832.00
             533.00,1832.00 535.00,1822.00 535.00,1822.00 Z
           M 1020.00,1822.00
           C 1019.61,1825.53 1021.90,1826.52 1024.42,1828.61
             1028.36,1831.87 1031.95,1834.93 1034.77,1839.29
             1039.48,1846.55 1030.90,1848.88 1031.16,1853.85
             1031.30,1856.48 1034.04,1856.61 1036.00,1856.52
             1036.00,1856.52 1055.00,1856.00 1055.00,1856.00
             1053.66,1849.00 1051.70,1848.51 1047.09,1843.71
             1047.09,1843.71 1042.49,1838.86 1042.49,1838.86
             1042.49,1838.86 1035.17,1834.28 1035.17,1834.28
             1029.10,1829.57 1031.28,1828.57 1020.00,1822.00 Z
           M 1016.00,1845.00
           C 1021.52,1836.83 1019.06,1838.57 1017.96,1832.00
             1017.54,1829.50 1018.38,1825.99 1014.87,1825.50
             1010.21,1824.84 1007.75,1830.09 1008.32,1834.00
             1008.94,1838.31 1012.77,1842.35 1016.00,1845.00 Z
           M 555.00,1832.00
           C 555.00,1832.00 548.00,1832.00 548.00,1832.00
             548.09,1840.71 548.51,1838.46 554.00,1844.00
             560.20,1839.73 556.52,1839.40 555.00,1832.00 Z
           M 1074.00,1836.00
           C 1070.69,1836.70 1069.74,1837.01 1067.02,1839.19
             1064.56,1841.15 1061.68,1843.76 1061.27,1847.04
             1060.43,1853.77 1069.40,1861.43 1073.07,1854.66
             1073.99,1852.96 1073.96,1850.89 1074.00,1849.00
             1074.00,1849.00 1074.00,1836.00 1074.00,1836.00 Z
           M 998.00,1878.00
           C 998.00,1878.00 1004.63,1869.38 1004.63,1869.38
             1006.85,1867.03 1009.27,1866.34 1011.70,1864.45
             1019.54,1858.36 1013.55,1856.86 1007.01,1858.02
             999.38,1859.37 983.90,1874.40 998.00,1878.00 Z
           M 1025.98,1868.74
           C 1021.51,1871.03 1012.41,1880.96 1011.41,1886.00
             1010.12,1892.43 1015.37,1897.98 1021.87,1895.26
             1028.40,1892.52 1030.11,1881.13 1030.00,1875.00
             1029.93,1871.20 1030.28,1868.93 1025.98,1868.74 Z
           M 1235.00,1874.00
           C 1235.00,1874.00 1234.00,1874.00 1234.00,1874.00
             1234.00,1874.00 1235.00,1875.00 1235.00,1875.00
             1235.00,1875.00 1235.00,1874.00 1235.00,1874.00 Z
           M 1063.00,1888.00
           C 1063.00,1888.00 1051.00,1886.21 1051.00,1886.21
             1051.00,1886.21 1041.00,1882.00 1041.00,1882.00
             1041.30,1884.94 1042.77,1892.34 1044.73,1894.44
             1046.07,1895.87 1048.13,1896.40 1050.00,1896.70
             1057.43,1897.86 1060.14,1894.18 1063.00,1888.00 Z
           M 1275.00,1928.73
           C 1275.00,1928.73 1262.00,1928.73 1262.00,1928.73
             1255.33,1929.09 1256.04,1930.07 1251.00,1930.79
             1245.82,1931.54 1240.24,1931.99 1235.00,1932.00
             1231.04,1932.01 1224.54,1931.55 1221.06,1933.15
             1218.33,1934.40 1216.27,1936.75 1218.62,1939.57
             1220.94,1942.36 1224.84,1941.56 1228.00,1942.09
             1228.00,1942.09 1243.28,1946.48 1243.28,1946.48
             1247.00,1947.07 1259.88,1944.19 1264.00,1943.46
             1269.13,1942.56 1281.69,1942.29 1287.00,1942.68
             1290.45,1942.93 1306.19,1942.23 1307.93,1939.49
             1310.21,1935.92 1304.58,1931.49 1301.83,1930.13
             1296.12,1927.31 1287.06,1929.22 1281.00,1928.73
             1281.00,1928.73 1275.00,1928.73 1275.00,1928.73 Z
           M 604.00,1934.00
           C 604.00,1934.00 603.00,1934.00 603.00,1934.00
             603.00,1934.00 604.00,1935.00 604.00,1935.00
             604.00,1935.00 604.00,1934.00 604.00,1934.00 Z
           M 1043.00,1947.00
           C 1037.37,1947.67 1035.89,1949.25 1036.00,1955.00
             1041.17,1953.33 1042.57,1952.50 1043.00,1947.00 Z
           M 238.00,2073.00
           C 238.00,2073.00 271.00,2072.33 271.00,2072.33
             271.00,2072.33 299.00,2072.33 299.00,2072.33
             299.00,2072.33 311.00,2072.33 311.00,2072.33
             311.00,2072.33 321.00,2072.33 321.00,2072.33
             321.00,2072.33 352.00,2072.33 352.00,2072.33
             352.00,2072.33 358.00,2072.33 358.00,2072.33
             358.00,2072.33 365.00,2072.33 365.00,2072.33
             365.00,2072.33 393.00,2072.33 393.00,2072.33
             393.00,2072.33 432.00,2072.33 432.00,2072.33
             432.00,2072.33 445.00,2072.33 445.00,2072.33
             445.00,2072.33 501.00,2072.33 501.00,2072.33
             501.00,2072.33 512.00,2072.33 512.00,2072.33
             512.00,2072.33 523.00,2072.33 523.00,2072.33
             523.00,2072.33 559.00,2072.33 559.00,2072.33
             559.00,2072.33 581.00,2072.33 581.00,2072.33
             581.00,2072.33 600.00,2072.33 600.00,2072.33
             600.00,2072.33 607.00,2072.33 607.00,2072.33
             607.00,2072.33 630.00,2072.33 630.00,2072.33
             630.00,2072.33 677.00,2072.33 677.00,2072.33
             677.00,2072.33 686.00,2072.33 686.00,2072.33
             686.00,2072.33 692.00,2072.33 692.00,2072.33
             692.00,2072.33 697.00,2072.33 697.00,2072.33
             697.00,2072.33 707.98,2072.33 707.98,2072.33
             707.98,2072.33 719.00,2072.33 719.00,2072.33
             719.00,2072.33 728.00,2072.33 728.00,2072.33
             728.00,2072.33 737.00,2072.33 737.00,2072.33
             737.00,2072.33 795.00,2072.33 795.00,2072.33
             795.00,2072.33 810.00,2071.00 810.00,2071.00
             810.00,2071.00 890.00,2071.00 890.00,2071.00
             890.00,2071.00 905.00,2072.00 905.00,2072.00
             905.00,2072.00 942.00,2072.68 942.00,2072.68
             942.00,2072.68 951.00,2072.04 951.00,2072.04
             951.00,2072.04 968.00,2072.90 968.00,2072.90
             968.00,2072.90 976.00,2072.90 976.00,2072.90
             976.00,2072.90 1062.00,2072.90 1062.00,2072.90
             1062.00,2072.90 1089.58,2074.09 1089.58,2074.09
             1089.58,2074.09 1150.00,2074.09 1150.00,2074.09
             1150.00,2074.09 1184.00,2074.68 1184.00,2074.68
             1184.00,2074.68 1192.00,2074.13 1192.00,2074.13
             1192.00,2074.13 1202.00,2074.13 1202.00,2074.13
             1202.00,2074.13 1221.00,2074.13 1221.00,2074.13
             1221.00,2074.13 1241.00,2073.00 1241.00,2073.00
             1241.00,2073.00 1284.00,2073.00 1284.00,2073.00
             1284.00,2073.00 1299.00,2074.00 1299.00,2074.00
             1299.00,2074.00 1324.00,2074.00 1324.00,2074.00
             1324.00,2074.00 1321.04,2090.00 1321.04,2090.00
             1321.04,2090.00 1322.02,2104.00 1322.02,2104.00
             1322.02,2104.00 1322.02,2131.00 1322.02,2131.00
             1322.02,2131.00 1322.96,2146.00 1322.96,2146.00
             1322.96,2146.00 1321.37,2161.00 1321.37,2161.00
             1321.37,2161.00 1322.00,2172.00 1322.00,2172.00
             1322.00,2172.00 1322.00,2196.00 1322.00,2196.00
             1322.00,2196.00 1284.00,2196.00 1284.00,2196.00
             1284.00,2196.00 1256.00,2194.00 1256.00,2194.00
             1256.00,2194.00 1230.00,2194.00 1230.00,2194.00
             1230.00,2194.00 1214.00,2195.00 1214.00,2195.00
             1214.00,2195.00 1169.00,2195.00 1169.00,2195.00
             1169.00,2195.00 1153.00,2196.00 1153.00,2196.00
             1153.00,2196.00 1127.00,2196.00 1127.00,2196.00
             1127.00,2196.00 1117.00,2195.03 1117.00,2195.03
             1117.00,2195.03 1104.00,2195.03 1104.00,2195.03
             1104.00,2195.03 1069.00,2195.03 1069.00,2195.03
             1069.00,2195.03 1028.00,2194.18 1028.00,2194.18
             1028.00,2194.18 1019.00,2194.82 1019.00,2194.82
             1019.00,2194.82 1008.00,2194.00 1008.00,2194.00
             1008.00,2194.00 980.00,2194.00 980.00,2194.00
             980.00,2194.00 968.00,2193.18 968.00,2193.18
             968.00,2193.18 956.00,2194.00 956.00,2194.00
             956.00,2194.00 889.00,2194.00 889.00,2194.00
             889.00,2194.00 872.00,2193.00 872.00,2193.00
             872.00,2193.00 819.00,2193.00 819.00,2193.00
             819.00,2193.00 803.00,2193.91 803.00,2193.91
             803.00,2193.91 732.00,2193.91 732.00,2193.91
             732.00,2193.91 703.00,2193.91 703.00,2193.91
             703.00,2193.91 691.00,2193.04 691.00,2193.04
             691.00,2193.04 678.00,2193.68 678.00,2193.68
             678.00,2193.68 670.00,2193.18 670.00,2193.18
             670.00,2193.18 662.00,2193.92 662.00,2193.92
             662.00,2193.92 649.00,2193.14 649.00,2193.14
             649.00,2193.14 627.00,2193.14 627.00,2193.14
             627.00,2193.14 613.00,2193.14 613.00,2193.14
             613.00,2193.14 603.00,2193.96 603.00,2193.96
             603.00,2193.96 591.00,2193.96 591.00,2193.96
             591.00,2193.96 576.00,2192.84 576.00,2192.84
             576.00,2192.84 563.00,2192.84 563.00,2192.84
             563.00,2192.84 554.00,2192.84 554.00,2192.84
             554.00,2192.84 542.00,2192.04 542.00,2192.04
             542.00,2192.04 529.00,2192.99 529.00,2192.99
             529.00,2192.99 515.00,2192.01 515.00,2192.01
             515.00,2192.01 501.00,2193.00 501.00,2193.00
             501.00,2193.00 472.00,2193.00 472.00,2193.00
             472.00,2193.00 455.00,2192.00 455.00,2192.00
             455.00,2192.00 435.00,2192.00 435.00,2192.00
             435.00,2192.00 419.00,2193.00 419.00,2193.00
             419.00,2193.00 384.00,2193.00 384.00,2193.00
             384.00,2193.00 367.00,2192.00 367.00,2192.00
             367.00,2192.00 290.00,2192.00 290.00,2192.00
             290.00,2192.00 265.00,2192.00 265.00,2192.00
             253.84,2192.02 249.38,2195.87 238.97,2192.00
             238.97,2192.00 238.97,2120.00 238.97,2120.00
             238.97,2120.00 238.97,2103.00 238.97,2103.00
             238.97,2103.00 238.00,2092.00 238.00,2092.00
             238.00,2092.00 238.00,2073.00 238.00,2073.00 Z"/>
</svg>